/* XPM */
static char *_36326fdec8c4b8e95fd968f88485aa8lYlLHvv8zyjzK07d[] = {
/* columns rows colors chars-per-pixel */
"128 128 7 1 ",
"  c #326418",
". c #614A33",
"X c #826950",
"o c #997550",
"O c #957658",
"+ c #45911D",
"@ c #ACC072",
/* pixels */
"@@@@@@@@@@@@@@@@@@@@@@@@@@@@@@@@@@@@@@@@@@@@@@@@@@@@@@@@@@@@@@@@@@@@@@@@@@@@@@@@@@@@@@@@@@@@@@@@@@@@@@@@@@@@@@@@@@@@@@@@@@@@@@@@",
"@@@@@@@@@@@@@@@@@@@@@@@@@@@@@@@@@@@@@@@@@@@@@@@@@@@@@@@@@@@@@@@@@@@@@@@@@@@@@@@@@@@@@@@@@@@@@@@@@@@@@@@@@@@@@@@@@@@@@@@@@@@@@@@@",
"@@@@@@@@@@@@@@@@@@@@@@@@@@@@@@@@@@@@@@@@@@@@@@@@@@@@@@@@@@@@@@@@@@@@@@@@@@@@@@@@@@@@@@@@@@@@@@@@@@@@@@@@@@@@@@@@@@@@@@@@@@@@@@@@",
"@@@@@@@@@@@@@@@@@@@@@@@@@@@@@@@@@@@@@@@@@@@@@@@@@@@@@@@@@@@@@@@@@@@@@@@@@@@@@@@@@@@@@@@@@@@@@@@@@@@@@@@@@@@@@@@@@@@@@@@@@@@@@@@@",
"@@@@@@@@@@@@@@@@@@@@@@@@@@@@@@@@@@@@@@@@@@@@@@@@@@@@@@@@@@@@@@@@@@@@@@@@@@@@@@@@@@@@@@@@@@@@@@@@@@@@@@@@@@@@@@@@@@@@@@@@@@@@@@@@",
"@@@@@@@@@@@@@@@@@@@@@@@@@@@@@@@@@@@@@@@@@@@@@@@@@@@@@@@@@@@@@@@@@@@@@@@@@@@@@@@@@@@@@@@@@@@@@@@@@@@@@@@@@@@@@@@@@@@@@@@@@@@@@@@@",
"@@@@@@@@@@@@@@@@@@@@@@@@@@@@@@@@@@@@@@@@@@@@@@@@@@@@@@@@@@@@@@@@@@@@@@@@@@@@@@@@@@@@@@@@@@@@@@@@@@@@@@@@@@@@@@@@@@@@@@@@@@@@@@@@",
"@@@@@@@@@@@@@@@@@@@@@@@@@@@@@@@@@@@@@@@@@@@@@@@@@@@@@@@@@@@@@@@@@@@@@@@@@@@@@@@@@@@@@@@@@@@@@@@@@@@@@@@@@@@@@@@@@@@@@@@@@@@@@@@@",
"@@@@@@@@@@@@@@@@@@@@@@@@@@@@@@@@@@@@@@@@@@@@@@@@@@@@@@@@@@@@@@@@@@@@@@@@@@@@@@@@@@@@@@@@@@@@@@@@@@@@@@@@@@@@@@@@@@@@@@@@@@@@@@@@",
"@@@@@@@@@@@@@@@@@@@@@@@@@@@@@@@@@@@@@@@@@@@@@@@@@@@@@@@@@@@@@@@@@@@@@@@@@@@@@@@@@@@@@@@@@@@@@@@@@@@@@@@@@@@@@@@@@@@@@@@@@@@@@@@@",
"@@@@@@@@@@@@@@@@@@@@@@@@@@@@@@@@@@@@@@@@@@@@@@@@@@@@@@@@@@@@@@@@@@@@@@@@@@@@@@@@@@@@@@@@@@@@@@@@@@@@@@@@@@@@@@@@@@@@@@@@@@@@@@@@",
"@@@@@@@@@@@@@@@@@@@@@@@@@@@@@@@@@@@@@@@@@@@@@@@@@@@@@@@@@@@@@@@@@@@@@@@@@@@@@@@@@@@@@@@@@@@@@@@@@@@@@@@@@@@@@@@@@@@@@@@@@@@@@@@@",
"@@@@@@@@@@@@@@@@@@@@@@@@@@@@@@@@@@@@@@@@@@@@@@@@@@@@@@@@@@@@@@@@@@@@@@@@@@@@@@@@@@@@@@@@@@@@@@@@@@@@@@@@@@@@@@@@@@@@@@@@@@@@@@@@",
"@@@@@@@@@@@@@@@@@@@@@@@@@@@@@@@@@@@@@@@@@@@@@@@@@@@@@@@@@@@@@@@@@@@@@@@@@@@@@@@@@@@@@@@@@@@@@@@@@@@@@@@@@@@@@@@@@@@@@@@@@@@@@@@@",
"@@@@@@@@@@@@@@@@@@@@@@@@@@@@@@@@@@@@@@@@@@@@@@@@@@@@@@@@@@@@@@@@@@@@@@@@@@@@@@@@@@@@@@@@@@@@@@@@@@@@@@@@@@@@@@@@@@@@@@@@@@@@@@@@",
"@@@@@@@@@@@@@@@@@@@@@@@@@@@@@@@@@@@@@@@@@@@@@@@@@@@@@@@@@@@@@@@@@@@@@@@@@@@@@@@@@@@@@@@@@@@@@@@@@@@@@@@@@@@@@@@@@@@@@@@@@@@@@@@@",
"@@@@@@@@@@@@@@@@@@@@@@@@@@@@@@@@@@@@@@@@@@@@@@@@@@@@@@@@@@@@@@@@@@@@@@@@@@@@@@@@@@@@@@@@@@@@@@@@@@@@@@@@@@@@@@@@@@@@@@@@@@@@@@@@",
"@@@@@@@@@@@@@@@@@@@@@@@@@@@@@@@@@@@@@@@@@@@@@@@@@@@@@@@@@@@@@@@@@@@@@@@@@@@@@@@@@@@@@@@@@@@@@@@@@@@@@@@@@@@@@@@@@@@@@@@@@@@@@@@@",
"@@@@@@@@@@@@@@@@@@@@@@@@@@@@@@@@@@@@@@@@@@@@@@@@@@@@@@@@@@@@@@@@@@@@@@@@@@@@@@@@@@@@@@@@@@@@@@@@@@@@@@@@@@@@@@@@@@@@@@@@@@@@@@@@",
"@@@@@@@@@@@@@@@@@@@@@@@@@@@@@@@@@@@@@@@@@@@@@@@@@@@@@@@@@@@@@@@@@@@@@@@@@@@@@@@@@@@@@@@@@@@@@@@@@@@@@@@@@@@@@@@@@@@@@@@@@@@@@@@@",
"@@@@@@@@@@@@@@@@@@@@@@@@@@@@@@@@@@@@@@@@@@@@@@@@@@@@@@@@@@@@@ooooooooooo@@@@@@@@@@@@@@@@@@@@@@@@@@@@@@@@@@@@@@@@@@@@@@@@@@@@@@@@",
"@@@@@@@@@@@@@@@@@@@@@@@@@@@@@@@@@@@@@@@@@@@@@@@@@@@@@ooooooooooooooooooooooo@@@@@@@@@@@@@@@@@@@@@@@@@@@@@@@@@@@@@@@@@@@@@@@@@@@@",
"@@@@@@@@@@@@@@@@@@@@@@@@@@@@@@@@@@@@@@@@@@@@@oooooooooooooooooooooooooooooooooooo@@@@@@@@@@@@@@@@@@@@@@@@@@@@@@@@@@@@@@@@@@@@@@@",
"@@@@@@@@@@@@@@@@@@@@@@@@@@@@@@@@@@@@@@@@@ooooooooooooooooooooooooooooooooooooooooooo@@@@@@@@@@@@@@@@@@@@@@@@@@@@@@@@@@@@@@@@@@@@",
"@@@@@@@@@@@@@@@@@@@@@@@@@@@@@@@@@@@@@@@oooooooooooooooo................ooooooooooooooo@@@@@@@@@@@@@@@@@@@@@@@@@@@@@@@@@@@@@@@@@@",
"@@@@@@@@@@@@@@@@@@@@@@@@@@@@@@@@@@@@oooooooooooo...........................ooooooooooooooo@@@@@@@@@@@@@@@@@@@@@@@@@@@@@@@@@@@@@@",
"@@@@@@@@@@@@@@@@@@@@@@@@@@@@@@@@@@@ooooooooooo................................ooooooooooooooooooooo@@@@@@@@@@@@@@@@@@@@@@@@@@@@@",
"@@@@@@@@@@@@@@@@@@@@@@@@@@@@@@@@@oooooooooo.....................................oooooooooooooooooooo@@@@@@@@@@@@@@@@@@@@@@@@@@@@",
"@@@@@@@@@@@@@@@@@@@@@@@@@@@@@@@@oooooooooo........................................ooooooooooooooooooo@@@@@@@@@@@@@@@@@@@@@@@@@@@",
"@@@@@@@@@@@@@@@@@@@@@@@@@@@@@@@oooooooooo..........................................ooooooooooooooooooo@@@@@@@@@@@@@@@@@@@@@@@@@@",
"@@@@@@@@@@@@@@@@@@@@@@@@@@@@@ooooooooooo.............................................oooooooooooooooooo@@@@@@@@@@@@@@@@@@@@@@@@@",
"@@@@@@@@@@@@@@@@@@@@@@@@@@@@ooooooooooo............................................+++++++oooooooooooooo@@@@@@@@@@@@@@@@@@@@@@@@",
"@@@@@@@@@@@@@@@@@@@@@@@@@@@@ooooooooooo.......................................+++++++++++++++oooooooooooo@@@@@@@@@@@@@@@@@@@@@@@",
"@@@@@@@@@@@@@@@@@@@@@@@@@@@ooooooooooo.......................................++++++++++++++++++++oooooooo@@@@@@@@@@@@@@@@@@@@@@@",
"@@@@@@@@@@@@@@@@@@@@@@@@@@oooooooooooo...................................++++++++++++++++++++++++++ooooooo@@@@@@@@@@@@@@@@@@@@@@",
"@@@@@@@@@@@@@@@@@@@@@@@@@ooooooooooooo..................................++++++++++++++++++++++++++++++ooooo@@@@@@@@@@@@@@@@@@@@@",
"@@@@@@@@@@@@@@@@@@@@@@@@oooooooooooooo.................................+++++++++++++++++++++++++++++++++oooo@@@@@@@@@@@@@@@@@@@@",
"@@@@@@@@@@@@@@@@@@@@@@@ooooooooooooooo................................++++++++++++++++++++++++++++++++++oooo@@@@@@@@@@@@@@@@@@@@",
"@@@@@@@@@@@@@@@@@@@@@@@ooooooooooooooo...............................++++++++++++++++++++++++++++++++++oooooo@@@@@@@@@@@@@@@@@@@",
"@@@@@@@@@@@@@@@@@@@@@@oooooooooooooooo..............................+++++++++++++++++++++++++++++++++++ooooooo@@@@@@@@@@@@@@@@@@",
"@@@@@@@@@@@@@@@@@@@@@oooooooooooooooo..............................++++++++++++++++++++++++++++++++++++ooooooo@@@@@@@@@@@@@@@@@@",
"@@@@@@@@@@@@@@@@@@@@ooooooooooooooooo.............................+++++++++++++++++++++++++++++++++++++ooooooo@@@@@@@@@@@@@@@@@@",
"@@@@@@@@@@@@@@@@@@@oooooooooooooooooo............................++++++++++++++++++++++++++++++++++++++oooooooo@@@@@@@@@@@@@@@@@",
"@@@@@@@@@@@@@@@@@@ooooooooooooooooooo............................++++++++++++++++++++++++++++++++++++++oooooooo@@@@@@@@@@@@@@@@@",
"@@@@@@@@@@@@@@@@@@oooooooooooooooooo............................+++++++++++++++++++++++++++++++++++++++oooooooo@@@@@@@@@@@@@@@@@",
"@@@@@@@@@@@@@@@@@@oooooooooooooo+++++++++++++++.................+++++++++++++++++++++++++++++++++++++++oooooooo@@@@@@@@@@@@@@@@@",
"@@@@@@@@@@@@@@@@@@oooooooooooo++++++++++++++++++++.............+++++++++++++++       +++++++++++++++++ooooooooo@@@@@@@@@@@@@@@@@",
"@@@@@@@@@@@@@@@@@@ooooooooo++++++++++++++++++++++++++++........++++++++++++    +++++++++++++++++++++++ooooooooo@@@@@@@@@@@@@@@@@",
"@@@@@@@@@@@@@@@@@@ooooooooo++++++++++++++++++++++++++++++.....++++++++++   ++++++++++++++++++++++++++oooooooooo@@@@@@@@@@@@@@@@@",
"@@@@@@@@@@@@@@@@@@oooooooo++++++++++++++++++++++++++++++++++++++++++++  +++++++++++++++++++++++++++++oooooooooo@@@@@@@@@@@@@@@@@",
"@@@@@@@@@@@@@@@@@@ooooooo++++++++++++++++++++++++++++++++++++++++++++ +++++++++++++++++++++++++++++++oooooooooo@@@@@@@@@@@@@@@@@",
"@@@@@@@@@@@@@@@@@@oooooo++++++++++++++++++++++         ++++++++++++  +++++++++++++++++++++++++++++++ooooooooooo@@@@@@@@@@@@@@@@@",
"@@@@@@@@@@@@@@@@@@oooooo++++++++++++++++++++   ++++++++  +++++++++++++++++++++++++++++++++++++++++++ooooooooooo@@@@@@@@@@@@@@@@@",
"@@@@@@@@@@@@@@@@@@oooooo+++++++++++++++++++ ++++++++++++  +++++++++++++++++++++++++++++++++++++++++..oooooooooo@@@@@@@@@@@@@@@@@",
"@@@@@@@@@@@@@@@@@@oooooo++++++++++++++++++++++++++++++++++++++++++++++++++++++++++++++++++++++++++...oooooooooo@@@@@@@@@@@@@@@@@",
"@@@@@@@@@@@@@@@@@@oooooo++++++++++++++++++++++++++++++++++++++++++++++++++++++++++++++++++++++   ....oooooooooo@@@@@@@@@@@@@@@@@",
"@@@@@@@@@@@@@@@@@@oooooo+++++++++++++++++++++++++++++++++  +++++++++++++++++++++++++++++++++   .......ooooooooo@@@@@@@@@@@@@@@@@",
"@@@@@@@@@@@@@@@@@oooooooo+++++++++++++++++++++++++++++++  .+++++++++++++++++++++++++++++++   .........ooooooooo@@@@@@@@@@@@@@@@@",
"@@@@@@@@@@@@@@@@@oooooooo++++++++++++++++++++++++++++++  ..++++++      +++++++++++++++++   ...........ooooooooo@@@@@@@@@@@@@@@@@",
"@@@@@@@@@@@@@@@@@ooooooooo+++++++++++++++++++++++++++   ...++++++ ....     ++++         ..............ooooooooo@@@@@@@@@@@@@@@@@",
"@@@@@@@@@@@@@@@@@oooooooooo++++++++++++++++++++++++   .....++++++ ........      ......................ooooooooo@@@@@@@@@@@@@@@@@",
"@@@@@@@@@@@@@@@@@ooooooooooo++++++++++++++++++++++  .......++++++ ....................................ooooooooo@@@@@@@@@@@@@@@@@",
"@@@@@@@@@@@@@@@@@oooooooooo..++++++++++++++++++   .........++++++ ...................................oooooooooo@@@@@@@@@@@@@@@@@",
"@@@@@@@@@@@@@@@@@oooooooooo..+++++++++++++++    ...........++++++ ...................................oooooooooo@@@@@@@@@@@@@@@@@",
"@@@@@@@@@@@@@@@@@ooooooooo......++++++       ..............++++++ ...................................oooooooooo@@@@@@@@@@@@@@@@@",
"@@@@@@@@@@@@@@@@@ooooooooo.................................++++++ ...................................oooooooooo@@@@@@@@@@@@@@@@@",
"@@@@@@@@@@@@@@@@@ooooooooo.................................++++++ ...................................oooooooooo@@@@@@@@@@@@@@@@@",
"@@@@@@@@@@@@@@@@@ooooooooo.................................++++++ ...................................oooooooooo@@@@@@@@@@@@@@@@@",
"@@@@@@@@@@@@@@@@@@ooooooo..................................++++++ ...................................oooooooooo@@@@@@@@@@@@@@@@@",
"@@@@@@@@@@@@@@@@@@ooooooo..................................++++++ ...................................ooooooooooo@@@@@@@@@@@@@@@@",
"@@@@@@@@@@@@@@@@@@ooooooo..................................++++++ ...................................ooooooooooo@@@@@@@@@@@@@@@@",
"@@@@@@@@@@@@@@@@@@ooooooo..................................++++++ ...................................ooooooooooo@@@@@@@@@@@@@@@@",
"@@@@@@@@@@@@@@@@@@ooooooo..................................++++++ ...................................ooooooooooo@@@@@@@@@@@@@@@@",
"@@@@@@@@@@@@@@@@@@oooooooo.................................++++++ ..................................ooooooooooooo@@@@@@@@@@@@@@@",
"@@@@@@@@@@@@@@@@@@ooooooooo................................++++++ ..................................ooooooooooooo@@@@@@@@@@@@@@@",
"@@@@@@@@@@@@@@@@@@ooooooooo................................++++++ ..................................ooooooooooooo@@@@@@@@@@@@@@@",
"@@@@@@@@@@@@@@@@@@Ooooooooo................................++...+ ..................................ooooooooooooo@@@@@@@@@@@@@@@",
"@@@@@@@@@@@@@@@@@@Oooooooooo...............................++.... ..................................ooooooooooooo@@@@@@@@@@@@@@@",
"@@@@@@@@@@@@@@@@@@XOoooooooo........................................................................ooooooooooooo@@@@@@@@@@@@@@@",
"@@@@@@@@@@@@@@@@@@XXooooooooo.......................................................................ooooooooooooo@@@@@@@@@@@@@@@",
"@@@@@@@@@@@@@@@@@@@XXoooooooo.......................................................................ooooooooooooo@@@@@@@@@@@@@@@",
"@@@@@@@@@@@@@@@@@@@@XXoooooooo......................................................................ooooooooooooo@@@@@@@@@@@@@@@",
"@@@@@@@@@@@@@@@@@@@@XXoooooooo......................................................................ooooooooooooo@@@@@@@@@@@@@@@",
"@@@@@@@@@@@@@@@@@@@@@XXoooooooo....................................................................oooooooooooooo@@@@@@@@@@@@@@@",
"@@@@@@@@@@@@@@@@@@@@@@XOoooooooo...................................................................oooooooooooooo@@@@@@@@@@@@@@@",
"@@@@@@@@@@@@@@@@@@@@@@XXooooooooo..................................................................oooooooooooooo@@@@@@@@@@@@@@@",
"@@@@@@@@@@@@@@@@@@@@@@XXooooooooo.................................................................ooooooooooooooo@@@@@@@@@@@@@@@",
"@@@@@@@@@@@@@@@@@@@@@@@XXoooooooooo...............................................................ooooooooooooooo@@@@@@@@@@@@@@@",
"@@@@@@@@@@@@@@@@@@@@@@@@XXoooooooooo.............................................................oooooooooooooooo@@@@@@@@@@@@@@@",
"@@@@@@@@@@@@@@@@@@@@@@@@XXooooooooooo............................................................oooooooooooooooX@@@@@@@@@@@@@@@",
"@@@@@@@@@@@@@@@@@@@@@@@@XXXoooooooooo...........................................................ooooooooooooooXXX@@@@@@@@@@@@@@@",
"@@@@@@@@@@@@@@@@@@@@@@@@@XXooooooooooo..........................................................oooooooooooooXXXX@@@@@@@@@@@@@@@",
"@@@@@@@@@@@@@@@@@@@@@@@@@XXXoooooooooooo.......................................................oooooooooooooXXXX@@@@@@@@@@@@@@@@",
"@@@@@@@@@@@@@@@@@@@@@@@@@@XXooooooooooooo....................................................oooooooooooooXXXXXX@@@@@@@@@@@@@@@@",
"@@@@@@@@@@@@@@@@@@@@@@@@@@XoXoooooooooooooo.................................................oooooooooooooXXXXXX@@@@@@@@@@@@@@@@@",
"@@@@@@@@@@@@@@@@@@@@@@@@@@XXXXoooooooooooooo...............................................oooooooooooooXXXXXXX@@@@@@@@@@@@@@@@@",
"@@@@@@@@@@@@@@@@@@@@@@@@@@@XXXXooooooooooooooo............................................oooooooooooooXXXXXXX@@@@@@@@@@@@@@@@@@",
"@@@@@@@@@@@@@@@@@@@@@@@@@@@XXXXXoooooooooooooooo.........................................oooooooooooXXXXXXXXXX@@@@@@@@@@@@@@@@@@",
"@@@@@@@@@@@@@@@@@@@@@@@@@@@XXXXXXXoooooooooooooooo.....................................ooooooooooooXXXXXXXXXX@@@@@@@@@@@@@@@@@@@",
"@@@@@@@@@@@@@@@@@@@@@@@@@@@@XXXXXXXoooooooooooooooooooo..............ooooooooooooooooooooooooooooXXXXXXXXXXXX@@@@@@@@@@@@@@@@@@@",
"@@@@@@@@@@@@@@@@@@@@@@@@@@@@XXXXXXXXXooooooooooooooooooooooooooooooooooooooooooooooooooooooooooXXXXXXXXXXXXX@@@@@@@@@@@@@@@@@@@@",
"@@@@@@@@@@@@@@@@@@@@@@@@@@@@XXXXXXXXXXXXooooooooooooooooooooooooooooooooooooooooooooooooooooXXXXXXXXXXXXXXXX@@@@@@@@@@@@@@@@@@@@",
"@@@@@@@@@@@@@@@@@@@@@@@@@@@@@XXXXXXXXXXXXXooooooooooooooooooooooooooooooooooooooooooooooooXXXXXXXXXXXXXXXXX@@@@@@@@@@@@@@@@@@@@@",
"@@@@@@@@@@@@@@@@@@@@@@@@@@@@@XXXXXXXXXXXXXXXooooooooooooooooooooooooooooooooooooooooooXXXXXXXXXXXXXXXXXXXX@@@@@@@@@@@@@@@@@@@@@@",
"@@@@@@@@@@@@@@@@@@@@@@@@@@@@@@XXXXXXXXXXXXXXXXXXXXXoooooooooooooooooooooooooooooooXXXXXXXXXXXXXXXXXXXXXX@@@@@@@@@@@@@@@@@@@@@@@@",
"@@@@@@@@@@@@@@@@@@@@@@@@@@@@@@@oXXXXXXXXXXXXXXXXXXXXXXXXXooooooooooooooooooooXXXXXXXXXXXXXXXXXXXXXXXXX@@@@@@@@@@@@@@@@@@@@@@@@@@",
"@@@@@@@@@@@@@@@@@@@@@@@@@@@@@@@@@XXXXXXXXXXXXXXXXXXXXXXXXXXXXXooooooooooXXXXXXXXXXXXXXXXXXXXXXXXXXXX@@@@@@@@@@@@@@@@@@@@@@@@@@@@",
"@@@@@@@@@@@@@@@@@@@@@@@@@@@@@@@@@@XXXXXXXXXXXXXXXXXXXXXXXXXXXXXXXXXXXXXXXXXXXXXXXXXXXXXXXXXXXXX@@@@@@@@@@@@@@@@@@@@@@@@@@@@@@@@@",
"@@@@@@@@@@@@@@@@@@@@@@@@@@@@@@@@@@@@XXXXXXXXXXXXXXXXXXXXXXXXXXXXXXXXXXXXXXXXXXXXXXXXXXXX@@@@@@@@@@@@@@@@@@@@@@@@@@@@@@@@@@@@@@@@",
"@@@@@@@@@@@@@@@@@@@@@@@@@@@@@@@@@@@@@@XXXXXXXXXXXXXXXXXXXXXXXXXXXXXXXXXXXX@@@@@@@@@@@@@@@@@@@@@@@@@@@@@@@@@@@@@@@@@@@@@@@@@@@@@@",
"@@@@@@@@@@@@@@@@@@@@@@@@@@@@@@@@@@@@@@@@oXXXXXXXXXXXXXXXXXXXXXXXXXXXXXX@@@@@@@@@@@@@@@@@@@@@@@@@@@@@@@@@@@@@@@@@@@@@@@@@@@@@@@@@",
"@@@@@@@@@@@@@@@@@@@@@@@@@@@@@@@@@@@@@@@@@@@@@XXXXXXXXXXXXXXXXXX@@@@@@@@@@@@@@@@@@@@@@@@@@@@@@@@@@@@@@@@@@@@@@@@@@@@@@@@@@@@@@@@@",
"@@@@@@@@@@@@@@@@@@@@@@@@@@@@@@@@@@@@@@@@@@@@@@@@@@@@@@@@@@@@@@@@@@@@@@@@@@@@@@@@@@@@@@@@@@@@@@@@@@@@@@@@@@@@@@@@@@@@@@@@@@@@@@@@",
"@@@@@@@@@@@@@@@@@@@@@@@@@@@@@@@@@@@@@@@@@@@@@@@@@@@@@@@@@@@@@@@@@@@@@@@@@@@@@@@@@@@@@@@@@@@@@@@@@@@@@@@@@@@@@@@@@@@@@@@@@@@@@@@@",
"@@@@@@@@@@@@@@@@@@@@@@@@@@@@@@@@@@@@@@@@@@@@@@@@@@@@@@@@@@@@@@@@@@@@@@@@@@@@@@@@@@@@@@@@@@@@@@@@@@@@@@@@@@@@@@@@@@@@@@@@@@@@@@@@",
"@@@@@@@@@@@@@@@@@@@@@@@@@@@@@@@@@@@@@@@@@@@@@@@@@@@@@@@@@@@@@@@@@@@@@@@@@@@@@@@@@@@@@@@@@@@@@@@@@@@@@@@@@@@@@@@@@@@@@@@@@@@@@@@@",
"@@@@@@@@@@@@@@@@@@@@@@@@@@@@@@@@@@@@@@@@@@@@@@@@@@@@@@@@@@@@@@@@@@@@@@@@@@@@@@@@@@@@@@@@@@@@@@@@@@@@@@@@@@@@@@@@@@@@@@@@@@@@@@@@",
"@@@@@@@@@@@@@@@@@@@@@@@@@@@@@@@@@@@@@@@@@@@@@@@@@@@@@@@@@@@@@@@@@@@@@@@@@@@@@@@@@@@@@@@@@@@@@@@@@@@@@@@@@@@@@@@@@@@@@@@@@@@@@@@@",
"@@@@@@@@@@@@@@@@@@@@@@@@@@@@@@@@@@@@@@@@@@@@@@@@@@@@@@@@@@@@@@@@@@@@@@@@@@@@@@@@@@@@@@@@@@@@@@@@@@@@@@@@@@@@@@@@@@@@@@@@@@@@@@@@",
"@@@@@@@@@@@@@@@@@@@@@@@@@@@@@@@@@@@@@@@@@@@@@@@@@@@@@@@@@@@@@@@@@@@@@@@@@@@@@@@@@@@@@@@@@@@@@@@@@@@@@@@@@@@@@@@@@@@@@@@@@@@@@@@@",
"@@@@@@@@@@@@@@@@@@@@@@@@@@@@@@@@@@@@@@@@@@@@@@@@@@@@@@@@@@@@@@@@@@@@@@@@@@@@@@@@@@@@@@@@@@@@@@@@@@@@@@@@@@@@@@@@@@@@@@@@@@@@@@@@",
"@@@@@@@@@@@@@@@@@@@@@@@@@@@@@@@@@@@@@@@@@@@@@@@@@@@@@@@@@@@@@@@@@@@@@@@@@@@@@@@@@@@@@@@@@@@@@@@@@@@@@@@@@@@@@@@@@@@@@@@@@@@@@@@@",
"@@@@@@@@@@@@@@@@@@@@@@@@@@@@@@@@@@@@@@@@@@@@@@@@@@@@@@@@@@@@@@@@@@@@@@@@@@@@@@@@@@@@@@@@@@@@@@@@@@@@@@@@@@@@@@@@@@@@@@@@@@@@@@@@",
"@@@@@@@@@@@@@@@@@@@@@@@@@@@@@@@@@@@@@@@@@@@@@@@@@@@@@@@@@@@@@@@@@@@@@@@@@@@@@@@@@@@@@@@@@@@@@@@@@@@@@@@@@@@@@@@@@@@@@@@@@@@@@@@@",
"@@@@@@@@@@@@@@@@@@@@@@@@@@@@@@@@@@@@@@@@@@@@@@@@@@@@@@@@@@@@@@@@@@@@@@@@@@@@@@@@@@@@@@@@@@@@@@@@@@@@@@@@@@@@@@@@@@@@@@@@@@@@@@@@",
"@@@@@@@@@@@@@@@@@@@@@@@@@@@@@@@@@@@@@@@@@@@@@@@@@@@@@@@@@@@@@@@@@@@@@@@@@@@@@@@@@@@@@@@@@@@@@@@@@@@@@@@@@@@@@@@@@@@@@@@@@@@@@@@@",
"@@@@@@@@@@@@@@@@@@@@@@@@@@@@@@@@@@@@@@@@@@@@@@@@@@@@@@@@@@@@@@@@@@@@@@@@@@@@@@@@@@@@@@@@@@@@@@@@@@@@@@@@@@@@@@@@@@@@@@@@@@@@@@@@",
"@@@@@@@@@@@@@@@@@@@@@@@@@@@@@@@@@@@@@@@@@@@@@@@@@@@@@@@@@@@@@@@@@@@@@@@@@@@@@@@@@@@@@@@@@@@@@@@@@@@@@@@@@@@@@@@@@@@@@@@@@@@@@@@@"
};
