/* XPM */
static char *totorodx1711027091[] = {
/* columns rows colors chars-per-pixel */
"128 128 11 1 ",
"  c black",
". c #070606",
"X c #3F3720",
"o c #2F6214",
"O c #554848",
"+ c #776868",
"@ c #45911D",
"# c #ACC072",
"$ c #B8B9AB",
"% c #DDDECC",
"& c #E8F3E6",
/* pixels */
"################################################################################################################################",
"################################################################################################################################",
"################################################################################################################################",
"################################################################################################################################",
"################################################################################################################################",
"################################################################################################################################",
"################################################################################################################################",
"################################################################################################################################",
"################################################################################################################################",
"################################################################################################################################",
"################################################################################################################################",
"################################################################################################################################",
"################################################################################################################################",
"################################################################################################################################",
"################################################################################################################################",
"################################################################################################################################",
"################################################################################################################################",
"################################################################################################################################",
"###########################################################++################++#################################################",
"###########################################################+++##############+++#################################################",
"##########################################################++++#############++++#################################################",
"##########################################################+++++###########+++++#################################################",
"#########################################################+++++++########+++++++#################################################",
"#########################################################+++++++########+++++++#################################################",
"########################################################+++++++++######++++++++#################################################",
"########################################################+++++++++#####+++++++++#################################################",
"#######################################################++++++++++#####+++++++++#################################################",
"#######################################################+++++++++++@@#++++++++++#################################################",
"######################################################++++++++++++@@#++++++++++#################################################",
"######################################################++++++++++++@@+++++++++OO#################################################",
"######################################################++++++++++++@@+++++++++O##################################################",
"######################################################++++++++++++@@+++++++++O##################################################",
"######################################################+++++++++OOOo@++++++++OO##################################################",
"######################################################OO+++++++@@@o@+++OOOOO@@@@@###############################################",
"################################################@@@@@@@@O++++++@@@@@@@@@@@@@@@@@@@##############################################",
"################################################@@@@@@@@@O+++++@@@@@@@@@@@@@@@@@@@@@############################################",
"#################################################@@@@@@@@O+++++o@@@@@@@@@@@@@@@@@@@@############################################",
"#################################################@@@@@@@@O+++++oooo@@@@@@@@@@@@ooo##############################################",
"#################################################@o@@@@@o+++++++++oooooooooooooo################################################",
"##################################################ooo@@@o+++++++++++++++++++++++++##############################################",
"####################################################ooooo+++++++++++++++++++++++++++############################################",
"#######################################################++++++++++++++++++++++++++++++###########################################",
"######################################################++++++++++++++++++++++++++++++++##########################################",
"######################################################++++++++++++++++++++++++++++++++++########################################",
"#####################################################++++++++++++++++++++++++++++++++++++#######################################",
"####################################################++++++++++++++++++++++++++++++++++++++######################################",
"####################################################+++++++++++++++++++++++++++++++++++++++#####################################",
"###################################################++++++++++++++++++++++++++++++++++++++++#####################################",
"###################################################+++++++++++++++++++++++&&&&&&&+++++++++XX####################################",
"##################################################+++++++++++++++++++++++&&&&&&&&&++++XXXXXX####################################",
"##################################################+++++++++++++++++++++++&&&&&&&&&+++XXXXXXXX###################################",
"##################################################++++++++++++++++    +++&&&   &&&++XXXXXXXXX###################################",
"#################################################++++++++         +++++++&&&   &&&++XXXXXXXXX###################################",
"################################################+++++++++++++++++++++++++&&&   &&&+++XXXXXXXX###################################",
"################################################++++++++++++++++++++  +++&&&&&&&&&+++++++++++###################################",
"###############################################+++++++++++++++++++  +++++&&&&&&&&&+++++++++++###################################",
"###############################################+++++++++++++++++   +++++++&&&&&&&++++++++++++###################################",
"###############################################+++++++++++++++  +++++++++++++++++++++++++++++###################################",
"##############################################++++++++++++++   ++++++  ++++++++++++++++++++++###################################",
"##############################################++++++++++++   +++++++ ++++++++++++++++++++++++###################################",
"##############################################+++++++++++  ++++++++ +++++++++++++++++++++++++###################################",
"##############################################++++++++++++++++++++  +++++++++++++++++++++++++###################################",
"#############################################++++++++++++++++++++  ++++++++++++++++++++++++++###################################",
"#############################################+++++++++++++++++++ +++++++++++++++++++++++++++++##################################",
"#############################################++++++++++++++++++ +++++++++++++++++++++++++%%%%%%#################################",
"#############################################++++++++++++++++  ++++++++++++++++++++++%%%%%%%%%%###################...#..########",
"############################################+++++++++++++++++ +++++++++++++++++++++%%%%%%%%%%%%%################........########",
"############################################+++++++++++++++++++++++++++++++++++++%%%%%%%%%%%%%%%X############++.........########",
"############################################++++++++++++++++++++++++++++++++++++%%%%%%%%%%%%%%XXX++######+++++..++.....#########",
"############################################+++++++++++++++++++++++++++++++++++%%%%%%%%%%%%%%%%%X++++++++++++++++++...##########",
"###########################################++++O++++++++++++++++++++++++++++++%%%%%%%%%%%%%%%%%%%%+++++++++++++++++..+#..#######",
"###########################################++++O+++++++++++++++++++++++++++++%%%%%%%%%%%%%%%%%%%%%%+++++++++++++++++++..########",
"###########################################++++O++++++++++++++++++++++++++++%%%%%%%%%%%%%%%%%%%%%%%+++++++++++++++++....########",
"##########################################++++O+++++++++++++++++++++++++++++%%%%%%%%XXXXX%%%%%%%%%%%+++++++++++++++++..#########",
"##########################################++++O++++++++++++++++++++++++++++%%%%%%%%%%%%X%%%%%%%%%%%%+++++++++++++++++O##########",
"##########################################++++O+++++++++++++++++++++++++++%%%%%%%%%%%%%%%%%%%%%%%%%%%++++++++++++++++O##########",
"##########################################++++O+++++++++++++++++++++++++++%%%%%%%%%%%%%%%%%%%%%%%XXXX+++++++++++++++O###########",
"#########################################++++O+++++++++++++++++++++++++++%%%%%%%%%%%%%%%%%%%%%%%%%%%X+++++++++++++++O###########",
"#########################################++++O+++++++++++++++++++++++++O%%%%%%%%%%%%%%%%%%%%%%%%%%%%%%+++++++++++++OO###########",
"#########################################++++O+++++++++++++++++++++++++O%%%%%%%%%%%%%%%%%%%%%%%%%%%%%%+++++++++++++O############",
"#########################################++++O+++++++++++++++++++++++++O%%%%%%%%%%%%%%%%%%%%%%%%%%%%%%%+++++++++++OO############",
"#########################################++++O+++++++++++++++++++++++++O%%%%%%%%%%%%%%%%%%%%%%%%%%%%%%%+++++++++++O#############",
"########################################+++++O+++++++++++++++++++++++++O%%%%%%XXXXX%%%%%%%%%%%%%%%%%%%%%+++++++++OO#############",
"########################################+++++O+++++++++++++++++++++++++O%%%%%%%%%X%%%%%%%%%%XXXXX%%%%%%%+++++++++O##############",
"########################################+++++O+++++++++++++++++++++++++O%%%%%%%%%%%%%%%%%%%%%%%X%%%%%%%X++++++++OO##############",
"########################################++++++O++++++++++++++++++++++++O%%%%%%%%%%%%%%%%%%%%%%%%%%%%%%%%++++++OOO###############",
"#######################################+++++++O++++++++++++++++++++++++O%%%%%%%%%%%%%%%%%%%%%%%%%%%%%%%%++++OOO#################",
"#######################################+++++++O+++++++++++++++++++++++++O%%%%%%%%%%%%%%%%%%%%%%%%%%%%%%%+++OO###################",
"######################################+++++++++O++++++++++++++++++++++++O%%%%%%%%%%%%%%%%%%%%%%%%%%%%%%%OOO#####################",
"######################################+++++++++O++++++++++++++++++++++++O%%%%%%%%%%%%%%%%%%%%%%%%%%%%%%%########################",
"#####################################+++++++++++O+++++++++++++++++++++++OO%%%%%%%%%%%%%%%%%%%%%%%%%%%%%%########################",
"##############################++++++++++++++++++O++++++++++++++++++++++++O%%%%%%%%%%%%%%%%%%%%%%%%%%%%%%########################",
"#############################+++++++++++++++++++O++++++++++++++++++++++++OO%%%%%%%%%%%%%%%%%%%%%%%%%%%%%########################",
"############################+++++++++++++++++++++O++++++++++++++++++++++++O%%%%%%%%%%%%%%%%%%%%%%%%%%%%%########################",
"###########################+++++++++++++++++++++++O++++++++++++++++++++++++O%%%%%%%%%%%%%%%%%%%%%%%%%%%%########################",
"###########################++++++++++++++++++++++++O+++++++++++++++++++++++OO%%%%%%%%%%%%%%%%%%%%%%%%%%%########################",
"##########################++++++++++++++++++++++++++O+++++++++++++++++++++++OO%%%%%%%%%%%%%%%%%%%%%%%%$$########################",
"##########################+++++++++++++++++++++++++++O++++++++++++++++++++++++O%%%%%%%%%%%%%%%%%%%%%%%$#########################",
"#########################++++++++++++++++++++++++++++O++++++++++++++++++++++++OO%%%%%%%%%%%%%%%%%%%%%$$#########################",
"#########################+++++++++++++++++++++++++++++O+++++++++++++++++++++++++O%%%%%%%%%%%%%%%%%%%%$##########################",
"#########################++++++++++++++++++++++++++++++O++++++++++++++++++++++++OO%%%%%%%%%%%%%%%%%%$$##########################",
"########################++++++++++++++++++++++++++++++++O++++++++++++++++++++++++OO%%%%%%%%%%%%%%%%%$###########################",
"########################+++++++++++++++++++++++++++++++++O++++++++++++++++++++++++O%%%%%%%%%%%%%%%%$$###########################",
"########################++++++++++++++++++++++++++++++++++O++++++++++++++++++++++++O%%%%%%%%%%%%%%%$############################",
"########################+++++++++++++++++++++++++++++++++++O++++++++++++++++++++++..O%%%%%%%%%%%%%$#############################",
"########################++++++++++++++++++++++++++++++++++++OO+++++++++++++++++++....%%%%%%%%%%%%$$#############################",
"########################++++++++++++++++++++++++++++++++++++++OO++++++++++++++++++....%%%%%%%%%%$$##############################",
"########################O+++++++++++++++++++++++++++++++++++++++OOO+++++++++++++...O...%%%%%%%%$$###############################",
"#########################O+++++++++++++++++++++++++++++++++++++++++OOO+++++++.......%%.%%%%%%%$$################################",
"#########################OO+++++++++++++++++++++++++++++++++++++++++++OOOOOOO........%%%%%%%%$$#################################",
"##########################OO++++++++++++++++++++++++++++++++++++++++++++$$$$$$...$$..%%%%%%%$$##################################",
"###########################OO+++++++++++++++++++++++++++++++++++++++++++$$$$$$$$.$$$%%%%%%$$$###################################",
"############################OOOOO+++++++++++++++++++++++++++++++++++++++++$$$$$$$$$$%%%%%$$#####################################",
"###############################OOOOOOOO++++++++++++++++++++++++++++++++++++$$$$$$$$$$%%%$$######################################",
"######################################OO++++++++++++++++++++++++++++++++++++$$$$$$$$$$$$$#######################################",
"#######################################OOOOOOOOOOOOOOOOOOOOOOOOOOOOOOOOOOOOOO$$$$$$$$$$#########################################",
"##########################################OOOOOOOOOOOOOOOOOOOOOOOOOOOOOOOOOOOOOOOOOOO###########################################",
"################################################################################################################################",
"################################################################################################################################",
"################################################################################################################################",
"################################################################################################################################",
"################################################################################################################################",
"################################################################################################################################",
"################################################################################################################################",
"################################################################################################################################",
"################################################################################################################################",
"################################################################################################################################",
"################################################################################################################################"
};
