/* XPM */
static char *totorosx1711027092[] = {
/* columns rows colors chars-per-pixel */
"128 128 11 1 ",
"  c black",
". c #070606",
"X c #3F3720",
"o c #2F6214",
"O c #554848",
"+ c #776868",
"@ c #45911D",
"# c #ACC072",
"$ c #B8B9AB",
"% c #DDDECC",
"& c #E8F3E6",
/* pixels */
"################################################################################################################################",
"################################################################################################################################",
"################################################################################################################################",
"################################################################################################################################",
"################################################################################################################################",
"################################################################################################################################",
"################################################################################################################################",
"################################################################################################################################",
"################################################################################################################################",
"################################################################################################################################",
"################################################################################################################################",
"################################################################################################################################",
"################################################################################################################################",
"################################################################################################################################",
"################################################################################################################################",
"################################################################################################################################",
"################################################################################################################################",
"################################################################################################################################",
"#################################################++################++###########################################################",
"#################################################+++##############+++###########################################################",
"#################################################++++#############++++##########################################################",
"#################################################+++++###########+++++##########################################################",
"#################################################+++++++########+++++++#########################################################",
"#################################################+++++++########+++++++#########################################################",
"#################################################++++++++######+++++++++########################################################",
"#################################################+++++++++#####+++++++++########################################################",
"#################################################+++++++++#####++++++++++#######################################################",
"#################################################++++++++++#@@+++++++++++#######################################################",
"#################################################++++++++++#@@++++++++++++######################################################",
"#################################################OO+++++++++@@++++++++++++######################################################",
"##################################################O+++++++++@@++++++++++++######################################################",
"##################################################O+++++++++@@++++++++++++######################################################",
"##################################################OO++++++++@oOOO+++++++++######################################################",
"###############################################@@@@@OOOOO+++@o@@@+++++++OO######################################################",
"##############################################@@@@@@@@@@@@@@@@@@@++++++O@@@@@@@@################################################",
"############################################@@@@@@@@@@@@@@@@@@@@@+++++O@@@@@@@@@################################################",
"############################################@@@@@@@@@@@@@@@@@@@@o+++++O@@@@@@@@#################################################",
"##############################################ooo@@@@@@@@@@@@oooo+++++O@@@@@@@@#################################################",
"################################################oooooooooooooo+++++++++o@@@@@o@#################################################",
"##############################################+++++++++++++++++++++++++o@@@ooo##################################################",
"############################################+++++++++++++++++++++++++++ooooo####################################################",
"###########################################++++++++++++++++++++++++++++++#######################################################",
"##########################################++++++++++++++++++++++++++++++++######################################################",
"########################################++++++++++++++++++++++++++++++++++######################################################",
"#######################################++++++++++++++++++++++++++++++++++++#####################################################",
"######################################++++++++++++++++++++++++++++++++++++++####################################################",
"#####################################+++++++++++++++++++++++++++++++++++++++####################################################",
"#####################################++++++++++++++++++++++++++++++++++++++++###################################################",
"####################################XX+++++++++&&&&&&&+++++++++++++++++++++++###################################################",
"####################################XXXXXX++++&&&&&&&&&+++++++++++++++++++++++##################################################",
"###################################XXXXXXXX+++&&&&&&&&&+++++++++++++++++++++++##################################################",
"###################################XXXXXXXXX++&&&   &&&+++    ++++++++++++++++##################################################",
"###################################XXXXXXXXX++&&&   &&&+++++++         ++++++++#################################################",
"###################################XXXXXXXX+++&&&   &&&+++++++++++++++++++++++++################################################",
"###################################+++++++++++&&&&&&&&&+++  ++++++++++++++++++++################################################",
"###################################+++++++++++&&&&&&&&&+++++  +++++++++++++++++++###############################################",
"###################################++++++++++++&&&&&&&+++++++   +++++++++++++++++###############################################",
"###################################+++++++++++++++++++++++++++++  +++++++++++++++###############################################",
"###################################++++++++++++++++++++++  ++++++   ++++++++++++++##############################################",
"###################################++++++++++++++++++++++++ +++++++   ++++++++++++##############################################",
"###################################+++++++++++++++++++++++++ ++++++++  +++++++++++##############################################",
"###################################+++++++++++++++++++++++++  ++++++++++++++++++++##############################################",
"###################################++++++++++++++++++++++++++  ++++++++++++++++++++#############################################",
"##################################+++++++++++++++++++++++++++++ +++++++++++++++++++#############################################",
"#################################%%%%%%+++++++++++++++++++++++++ ++++++++++++++++++#############################################",
"########..#...###################%%%%%%%%%%++++++++++++++++++++++  ++++++++++++++++#############################################",
"########........################%%%%%%%%%%%%%+++++++++++++++++++++ +++++++++++++++++############################################",
"########.........++############X%%%%%%%%%%%%%%%+++++++++++++++++++++++++++++++++++++############################################",
"#########.....++..+++++######++XXX%%%%%%%%%%%%%%++++++++++++++++++++++++++++++++++++############################################",
"##########...++++++++++++++++++X%%%%%%%%%%%%%%%%%+++++++++++++++++++++++++++++++++++############################################",
"#######..#+..+++++++++++++++++%%%%%%%%%%%%%%%%%%%%++++++++++++++++++++++++++++++O++++###########################################",
"########..+++++++++++++++++++%%%%%%%%%%%%%%%%%%%%%%+++++++++++++++++++++++++++++O++++###########################################",
"########....+++++++++++++++++%%%%%%%%%%%%%%%%%%%%%%%++++++++++++++++++++++++++++O++++###########################################",
"#########..+++++++++++++++++%%%%%%%%%%%XXXXX%%%%%%%%+++++++++++++++++++++++++++++O++++##########################################",
"##########O+++++++++++++++++%%%%%%%%%%%%X%%%%%%%%%%%%++++++++++++++++++++++++++++O++++##########################################",
"##########O++++++++++++++++%%%%%%%%%%%%%%%%%%%%%%%%%%%+++++++++++++++++++++++++++O++++##########################################",
"###########O+++++++++++++++XXXX%%%%%%%%%%%%%%%%%%%%%%%+++++++++++++++++++++++++++O++++##########################################",
"###########O+++++++++++++++X%%%%%%%%%%%%%%%%%%%%%%%%%%%+++++++++++++++++++++++++++O++++#########################################",
"###########OO+++++++++++++%%%%%%%%%%%%%%%%%%%%%%%%%%%%%%O+++++++++++++++++++++++++O++++#########################################",
"############O+++++++++++++%%%%%%%%%%%%%%%%%%%%%%%%%%%%%%O+++++++++++++++++++++++++O++++#########################################",
"############OO+++++++++++%%%%%%%%%%%%%%%%%%%%%%%%%%%%%%%O+++++++++++++++++++++++++O++++#########################################",
"#############O+++++++++++%%%%%%%%%%%%%%%%%%%%%%%%%%%%%%%O+++++++++++++++++++++++++O++++#########################################",
"#############OO+++++++++%%%%%%%%%%%%%%%%%%%%%XXXXX%%%%%%O+++++++++++++++++++++++++O+++++########################################",
"##############O+++++++++%%%%%%%XXXXX%%%%%%%%%%X%%%%%%%%%O+++++++++++++++++++++++++O+++++########################################",
"##############OO++++++++X%%%%%%%X%%%%%%%%%%%%%%%%%%%%%%%O+++++++++++++++++++++++++O+++++########################################",
"###############OOO++++++%%%%%%%%%%%%%%%%%%%%%%%%%%%%%%%%O++++++++++++++++++++++++O++++++########################################",
"#################OOO++++%%%%%%%%%%%%%%%%%%%%%%%%%%%%%%%%O++++++++++++++++++++++++O+++++++#######################################",
"###################OO+++%%%%%%%%%%%%%%%%%%%%%%%%%%%%%%%O+++++++++++++++++++++++++O+++++++#######################################",
"#####################OOO%%%%%%%%%%%%%%%%%%%%%%%%%%%%%%%O++++++++++++++++++++++++O+++++++++######################################",
"########################%%%%%%%%%%%%%%%%%%%%%%%%%%%%%%%O++++++++++++++++++++++++O+++++++++######################################",
"########################%%%%%%%%%%%%%%%%%%%%%%%%%%%%%%OO+++++++++++++++++++++++O+++++++++++#####################################",
"########################%%%%%%%%%%%%%%%%%%%%%%%%%%%%%%O++++++++++++++++++++++++O++++++++++++++++++##############################",
"########################%%%%%%%%%%%%%%%%%%%%%%%%%%%%%OO++++++++++++++++++++++++O+++++++++++++++++++#############################",
"########################%%%%%%%%%%%%%%%%%%%%%%%%%%%%%O++++++++++++++++++++++++O+++++++++++++++++++++############################",
"########################%%%%%%%%%%%%%%%%%%%%%%%%%%%%O++++++++++++++++++++++++O+++++++++++++++++++++++###########################",
"########################%%%%%%%%%%%%%%%%%%%%%%%%%%%OO+++++++++++++++++++++++O++++++++++++++++++++++++###########################",
"########################$$%%%%%%%%%%%%%%%%%%%%%%%%OO+++++++++++++++++++++++O++++++++++++++++++++++++++##########################",
"#########################$%%%%%%%%%%%%%%%%%%%%%%%O++++++++++++++++++++++++O+++++++++++++++++++++++++++##########################",
"#########################$$%%%%%%%%%%%%%%%%%%%%%OO++++++++++++++++++++++++O++++++++++++++++++++++++++++#########################",
"##########################$%%%%%%%%%%%%%%%%%%%%O+++++++++++++++++++++++++O+++++++++++++++++++++++++++++#########################",
"##########################$$%%%%%%%%%%%%%%%%%%OO++++++++++++++++++++++++O++++++++++++++++++++++++++++++#########################",
"###########################$%%%%%%%%%%%%%%%%%OO++++++++++++++++++++++++O++++++++++++++++++++++++++++++++########################",
"###########################$$%%%%%%%%%%%%%%%%O++++++++++++++++++++++++O+++++++++++++++++++++++++++++++++########################",
"############################$%%%%%%%%%%%%%%%O++++++++++++++++++++++++O++++++++++++++++++++++++++++++++++########################",
"#############################$%%%%%%%%%%%%%O..++++++++++++++++++++++O+++++++++++++++++++++++++++++++++++########################",
"#############################$$%%%%%%%%%%%%....+++++++++++++++++++OO++++++++++++++++++++++++++++++++++++########################",
"##############################$$%%%%%%%%%%....++++++++++++++++++OO++++++++++++++++++++++++++++++++++++++########################",
"###############################$$%%%%%%%%...O...+++++++++++++OOO+++++++++++++++++++++++++++++++++++++++O########################",
"################################$$%%%%%%%.%%.......+++++++OOO+++++++++++++++++++++++++++++++++++++++++O#########################",
"#################################$$%%%%%%%%........OOOOOOO+++++++++++++++++++++++++++++++++++++++++++OO#########################",
"##################################$$%%%%%%%..$$...$$$$$$++++++++++++++++++++++++++++++++++++++++++++OO##########################",
"###################################$$$%%%%%%$$$.$$$$$$$$+++++++++++++++++++++++++++++++++++++++++++OO###########################",
"#####################################$$%%%%%$$$$$$$$$$+++++++++++++++++++++++++++++++++++++++++OOOOO############################",
"######################################$$%%%$$$$$$$$$$++++++++++++++++++++++++++++++++++++OOOOOOOO###############################",
"#######################################$$$$$$$$$$$$$++++++++++++++++++++++++++++++++++++OO######################################",
"#########################################$$$$$$$$$$OOOOOOOOOOOOOOOOOOOOOOOOOOOOOOOOOOOOOO#######################################",
"###########################################OOOOOOOOOOOOOOOOOOOOOOOOOOOOOOOOOOOOOOOOOOO##########################################",
"################################################################################################################################",
"################################################################################################################################",
"################################################################################################################################",
"################################################################################################################################",
"################################################################################################################################",
"################################################################################################################################",
"################################################################################################################################",
"################################################################################################################################",
"################################################################################################################################",
"################################################################################################################################",
"################################################################################################################################"
};
