/* XPM */
static char *totoro1711027091[] = {
/* columns rows colors chars-per-pixel */
"128 128 11 1 ",
"  c black",
". c #302A18",
"X c #3F3720",
"o c #2F6214",
"O c #554848",
"+ c #776868",
"@ c #45911D",
"# c #ACC072",
"$ c #B8B9AB",
"% c #DDDECC",
"& c #E8F3E6",
/* pixels */
"################################################################################################################################",
"################################################################################################################################",
"################################################################################################################################",
"################################################################################################################################",
"################################################################################################################################",
"################################################################################################################################",
"################################################################################################################################",
"################################################################################################################################",
"################################################################################################################################",
"################################################################################################################################",
"################################################################################################################################",
"################################################################################################################################",
"################################################################################################################################",
"################################################################################################################################",
"################################################################################################################################",
"################################################################################################################################",
"################################################################################################################################",
"################################################################################################################################",
"#######################################++++##########################################++++#######################################",
"#######################################+++++########################################+++++#######################################",
"#######################################+++++########################################+++++#######################################",
"#######################################++++++######################################++++++#######################################",
"#######################################+++++++################@@@@################+++++++#######################################",
"#######################################+++++++#################@@#################+++++++#######################################",
"######################################++++++++#################@@#################++++++++######################################",
"######################################+++++++++################@@################+++++++++######################################",
"######################################++++++++++###############@@###############++++++++++######################################",
"#####################################+++++++++++###############@@###############+++++++++++#####################################",
"#####################################++++++++++++##############o@##############++++++++++++#####################################",
"####################################+++++++++++++##############o@##############+++++++++++++####################################",
"####################################++++++++++++++#####@@@@@@@@@@@@@@@@@@#####++++++++++++++####################################",
"###################################++++++++++++@@@@@@@@@@@@@@@@@@@@@@@@@@@@@@@@@@++++++++++++###################################",
"###################################++++++++++++@@@@@@@@@@@@@@@@@@@@@@@@@@@@@@@@@@++++++++++++###################################",
"###################################O+++++++++++@@@@@@@@@@@@@@@@@@@@@@@@@@@@@@@@@@+++++++++++O###################################",
"###################################O++++++++++++ooooo@@@@@@@@@@@@@@@@@@@@@oooooo++++++++++++O###################################",
"###################################OO+++++++++++OOOOooo@@@@@@@@@@@@@@@@@@ooOOOOO+++++++++++OO###################################",
"####################################OO++++++++++++++OOoo@@@@@@@@@@@@@@@@ooOO++++++++++++++OO####################################",
"#####################################OO++++++++++++++OOooo@@@@@@@@@@@@@ooOO++++++++++++++OO#####################################",
"######################################O+++++++++++++++OOOooo@@@@@@@@@oooOO+++++++++++++++O######################################",
"######################################O+++++++++++++++++OOOooooooooooOOO+++++++++++++++++O######################################",
"######################################O+++++++++++++++++++OOOOOOOOOOOO+++++++++++++++++++O######################################",
"######################################++++++++++++++++++++++++++++++++++++++++++++++++++++######################################",
"#####################################++++++++++++++++++++++++++++++++++++++++++++++++++++++#####################################",
"#####################################++++++++++++++++++++++++++++++++++++++++++++++++++++++#####################################",
"####################################++++++++++++++++++++++++++++++++++++++++++++++++++++++++####################################",
"####################################++++++++++++++++++++++++++++++++++++++++++++++++++++++++####################################",
"###################################++++++++++++++++++++++++++++++++++++++++++++++++++++++++++###################################",
"###################################++++++++++++++++++++++++++++++++++++++++++++++++++++++++++###################################",
"###################################++++++++++&&&&&&&&++++++++++++++++++++++&&&&&&&&++++++++++###################################",
"##################################++++++++++&&&&&&&&&&++++++++++++++++++++&&&&&&&&&&++++++++++##################################",
"##################################++++++++++&&&&  &&&&++++++++++++++++++++&&&&  &&&&++++++++++##################################",
"##################################++++++++++&&&    &&&+XXXXXXXXXXXXXXXXXX+&&&    &&&++++++++++##################################",
"##############################   #++++++++++&&&    &&&+XXXXXXXXXXXXXXXXXX+&&&    &&&++++++++++#   ##############################",
"#################################    +++++++&&&&  &&&&+XXXXXXXXXXXXXXXXXX+&&&&  &&&&+++++++    #################################",
"#################################++++  +++++&&&&&&&&&&+XXXXXXXXXXXXXXXXXX+&&&&&&&&&&+++++  ++++#################################",
"#################################++++++  +++&&&&&&&&&&++++XXXXXXXXXXXX++++&&&&&&&&&&+++  ++++++#################################",
"#################################++++++++++++&&&&&&&&+++++++.......X+++++++&&&&&&&&++++++++++++#################################",
"#################################++++++++++++++++++++++++++++++++++++++++++++++++++++++++++++++#################################",
"################################         ++++++++++++++++++++++++++++++++++++++++++++++         ################################",
"###########################      ++++++++++++++++++++++++++++++++++++++++++++++++++++++++++++++      ###########################",
"#################################++++++++++++++++++++++++++++++++++++++++++++++++++++++++++++++#################################",
"#################################+++++++ ++++++++++++++++++++++++++++++++++++++++++++++ +++++++#################################",
"##################################+++++  ++++++++++++++++++++++++++++++++++++++++++++++  +++++##################################",
"#################################++++  ++++++++++++++++++++++++++++++++++++++++++++++++++  ++++#################################",
"################################++   ++++++++++++++++++++++++++++++++++++++++++++++++++++++   ++################################",
"###############################+   ++++++++++++++++++++++++++++++++++++++++++++++++++++++++++   +###############################",
"##############################   ++++++++++++++++++++++++++++++++++++++++++++++++++++++++++++++   ##############################",
"############################# ++++++++++++++++++++++++++++++++++++++++++++++++++++++++++++++++++++ #############################",
"#############################++++++++++++++++++++++++++++++++++++++++++++++++++++++++++++++++++++++#############################",
"#############################++++++++++++++++++++++++++++++++++++++++++++++++++++++++++++++++++++++#############################",
"############################+++++++++++++++++++++++++++++%%%%%%%%%%%%%%+++++++++++++++++++++++++++++############################",
"############################++++++++++++++++++++++++%%%%%%%%%%%%%%%%%%%%%%%%++++++++++++++++++++++++############################",
"###########################+++++++++++++++++++++++%%%%%%%%%%%%%%%%%%%%%%%%%%%%+++++++++++++++++++++++###########################",
"###########################+++++++++++++++++++++%%%%%%%%%%%%%%%%%%%%%%%%%%%%%%%%+++++++++++++++++++++###########################",
"###########################++++++++++++++++++++%%%%%%%%%%%%%%%%%%%%%%%%%%%%%%%%%%++++++++++++++++++++###########################",
"##########################+++++++++++++++++++%%%%%%%%%%%%%%%%XXXXXX%%%%%%%%%%%%%%%%+++++++++++++++++++##########################",
"##########################++++++++++++++++++%%%%%%%%%%%%%%%%%%%XX%%%%%%%%%%%%%%%%%%%++++++++++++++++++##########################",
"#########################+++++++++++++++++%%%%%%%%%%%%%%%%%%%%%%%%%%%%%%%%%%%%%%%%%%%%+++++++++++++++++#########################",
"#########################++++++++++++++++%%%%%%%XXXXXX%%%%%%%%%%%%%%%%%%%%XXXXXX%%%%%%%++++++++++++++++#########################",
"########################++++++++++++++++%%%%%%%%%%XX%%%%%%%%%%%%%%%%%%%%%%%%XX%%%%%%%%%%++++++++++++++++########################",
"########################++++++++++++++++%%%%%%%%%%%%%%%%%%%%%%%%%%%%%%%%%%%%%%%%%%%%%%%%++++++++++++++++########################",
"########################+++++++++++++++%%%%%%%%%%%%%%%%%%%%%%%%%%%%%%%%%%%%%%%%%%%%%%%%%%+++++++++++++++########################",
"#######################++++++++++++++++%%%%%%%%%%%%%%%%%%%%%%%%%%%%%%%%%%%%%%%%%%%%%%%%%%++++++++++++++++#######################",
"#######################+++++++++++++++%%%%%%%%%%%%%%%%%%%%%%%XXXXXX%%%%%%%%%%%%%%%%%%%%%%%+++++++++++++++#######################",
"#######################+++++++++++++++%%%%%%%%%%%%%%%%%%%%%%%%%XX%%%%%%%%%%%%%%%%%%%%%%%%%+++++++++++++++#######################",
"######################++++++++++++++++%%%%%%%%%%%%%%%%%%%%%%%%%%%%%%%%%%%%%%%%%%%%%%%%%%%%++++++++++++++++######################",
"######################+++++++++++++++%%%%%%%%%%%%%%%%%%%%%%%%%%%%%%%%%%%%%%%%%%%%%%%%%%%%%%+++++++++++++++######################",
"#####################++++++++++++++++%%%%%%XXXXXX%%%%%%%%%%%%%%%%%%%%%%%%%%%%%%XXXXXX%%%%%%++++++++++++++++#####################",
"#####################++++++++++++++++%%%%%%%%XX%%%%%%%%%%%%%%%%%%%%%%%%%%%%%%%%%%XX%%%%%%%%++++++++++++++++#####################",
"#####################++++++++++++++++%%%%%%%%%%%%%%%%%%%%%%%%%%%%%%%%%%%%%%%%%%%%%%%%%%%%%%++++++++++++++++#####################",
"#####################+++++++++++++++%%%%%%%%%%%%%%%%%%%%XXXXXX%%%%XXXXXX%%%%%%%%%%%%%%%%%%%%+++++++++++++++#####################",
"#####################+++++++++++++++%%%%%%%%%%%%%%%%%%%%%%XX%%%%%%%%XX%%%%%%%%%%%%%%%%%%%%%%+++++++++++++++#####################",
"#####################+++++++++++++++%%%%%%%%%%%%%%%%%%%%%%%%%%%%%%%%%%%%%%%%%%%%%%%%%%%%%%%%+++++++++++++++#####################",
"#####################+++++++++++++++%%%%%%%%%%%%%%%%%%%%%%%%%%%%%%%%%%%%%%%%%%%%%%%%%%%%%%%%+++++++++++++++#####################",
"#####################+++++++++++++++%%%%%%%%%%%%%%%%%%%%%%%%%%%%%%%%%%%%%%%%%%%%%%%%%%%%%%%%+++++++++++++++#####################",
"#####################+++++++++++++++%%%%%%%%%%%%%%%%%%%%%%%%%%%%%%%%%%%%%%%%%%%%%%%%%%%%%%%%+++++++++++++++#####################",
"#####################+++++++++++++++%%%%%%%%%%%%%%%%%%%%%%%%%%%%%%%%%%%%%%%%%%%%%%%%%%%%%%%%+++++++++++++++#####################",
"#####################+++++++++++++++%%%%%%%%%%%%%%%%%%%%%%%%%%%%%%%%%%%%%%%%%%%%%%%%%%%%%%%%+++++++++++++++#####################",
"#####################+++++++++++++++%%%%%%%%%%%%%%%%%%%%%%%%%%%%%%%%%%%%%%%%%%%%%%%%%%%%%%%%+++++++++++++++#####################",
"#####################+++++++++++++++%%%%%%%%%%%%%%%%%%%%%%%%%%%%%%%%%%%%%%%%%%%%%%%%%%%%%%%%+++++++++++++++#####################",
"######################++++++++++++++%%%%%%%%%%%%%%%%%%%%%%%%%%%%%%%%%%%%%%%%%%%%%%%%%%%%%%%%++++++++++++++######################",
"######################++++++++++++++%%%%%%%%%%%%%%%%%%%%%%%%%%%%%%%%%%%%%%%%%%%%%%%%%%%%%%%%++++++++++++++######################",
"######################++++++++++++++%%%%%%%%%%%%%%%%%%%%%%%%%%%%%%%%%%%%%%%%%%%%%%%%%%%%%%%%++++++++++++++######################",
"#######################+++++++++++++%%%%%%%%%%%%%%%%%%%%%%%%%%%%%%%%%%%%%%%%%%%%%%%%%%%%%%%%+++++++++++++#######################",
"#######################+++++++++++++%%%%%%%%%%%%%%%%%%%%%%%%%%%%%%%%%%%%%%%%%%%%%%%%%%%%%%%%+++++++++++++#######################",
"########################++++++++++++%%%%%%%%%%%%%%%%%%%%%%%%%%%%%%%%%%%%%%%%%%%%%%%%%%%%%%%%++++++++++++########################",
"#########################+++++++++++$%%%%%%%%%%%%%%%%%%%%%%%%%%%%%%%%%%%%%%%%%%%%%%%%%%%%%%$+++++++++++#########################",
"#########################+++++++++++$%%%%%%%%%%%%%%%%%%%%%%%%%%%%%%%%%%%%%%%%%%%%%%%%%%%%%%$+++++++++++#########################",
"##########################O+++++++++$$%%%%%%%%%%%%%%%%%%%%%%%%%%%%%%%%%%%%%%%%%%%%%%%%%%%%$$+++++++++O##########################",
"##########################OO+++++++++$%%%%%%%%%%%%%%%%%%%%%%%%%%%%%%%%%%%%%%%%%%%%%%%%%%%%$+++++++++OO##########################",
"###########################O+++++++++$%%%%%%%%%%%%%%%%%%%%%%%%%%%%%%%%%%%%%%%%%%%%%%%%%%%%$+++++++++O###########################",
"############################OO+++++++$$%%%%%%%%%%%%%%%%%%%%%%%%%%%%%%%%%%%%%%%%%%%%%%%%%%$$+++++++OO############################",
"#############################OO+++++++$$%%%%%%%%%%%%%%%%%%%%%%%%%%%%%%%%%%%%%%%%%%%%%%%%$$+++++++OO#############################",
"##############################OO++++++$$$$%%%%%%%%%%%%%%%%%%%%%%%%%%%%%%%%%%%%%%%%%%%%$$$$++++++OO##############################",
"###############################OO+++++$$$$$$$$$$$$$$$$$$$$$$$$$$$$$$$$$$$$$$$$$$$$$$$$$$$$+++++OO###############################",
"###############################OOOOOOOOO$$$$$$$$$$$$$$$$$$$$$$$$$$$$$$$$$$$$$$$$$$$$$$$$OOOOOOOOO###############################",
"################################OOOOOOOOOOOOOOOOOOOOOOOOOOOOOOOOOOOOOOOOOOOOOOOOOOOOOOOOOOOOOOOO################################",
"################################################################################################################################",
"################################################################################################################################",
"################################################################################################################################",
"################################################################################################################################",
"################################################################################################################################",
"################################################################################################################################",
"################################################################################################################################",
"################################################################################################################################",
"################################################################################################################################",
"################################################################################################################################",
"################################################################################################################################"
};
