/* XPM */
static char *tree1711030894[] = {
/* columns rows colors chars-per-pixel */
"128 128 6 1 ",
"  c #433425",
". c #326418",
"X c #39701C",
"o c #614B35",
"O c #6B9D29",
"+ c #ACC072",
/* pixels */
"++++++++++++++++++++++++++++++++++++++++++++++++++++++++++++++++++++++++++++++++++++++++++++++++++++++++++++++++++++++++++++++++",
"++++++++++++++++++++++++++++++++++++++++++++++++++++++++++++++++++++++++++++++++++++++++++++++++++++++++++++++++++++++++++++++++",
"++++++++++++++++++++++++++++++++++++++++++++++++++++++++++++++++++++++++++++++++++++++++++++++++++++++++++++++++++++++++++++++++",
"++++++++++++++++++++++++++++++++++++++++++++++++++++++++++++++++++++++++++++++++++++++++++++++++++++++++++++++++++++++++++++++++",
"++++++++++++++++++++++++++++++++++++++++++++++++++++++++++++++++++++++++++++++++++++++++++++++++++++++++++++++++++++++++++++++++",
"++++++++++++++++++++++++++++++++++++++++++++++++++++++++++++++++++++++++++++++++++++++++++++++++++++++++++++++++++++++++++++++++",
"++++++++++++++++++++++++++++++++++++++++++++++++++++++++++++++++++++++++++++++++++++++++++++++++++++++++++++++++++++++++++++++++",
"++++++++++++++++++++++++++++++++++++++++++++++++++++++++++++++++++++++++++++++++++++++++++++++++++++++++++++++++++++++++++++++++",
"++++++++++++++++++++++++++++++++++++++++++++++++++++++++++++++++++++++++++++++++++++++++++++++++++++++++++++++++++++++++++++++++",
"+++++++++++++++++++++++++++++++++++++++++++++++++++....++++++++++++++++++....+++++++++++++++++++++++++++++++++++++++++++++++++++",
"+++++++++++++++++++++++++++++++++++++++++++++++++..XXX......++++++++......XXX..+++++++++++++++++++++++++++++++++++++++++++++++++",
"++++++++++++++++++++++++++++++++++++++++++++++++..XXXXXXXXXX........XXOOOXOOOO..++++++++++++++++++++++++++++++++++++++++++++++++",
"+++++++++++++++++++++++++++++++++++++++++++++++.XXXXXXXXXXXXXXXXXXXXOOXXOOOXXXOX.+++++++++++++++++++++++++++++++++++++++++++++++",
"++++++++++++++++++++++++++++++++++++++++........XXXXXXXXXXXXXXXXXXXXOXXXXXXXXXXX........++++++++++++++++++++++++++++++++++++++++",
"++++++++++++++++++++++++++++++++++++++...XXXXXXXXXXXXXXXXXXXXXXXXXXXXXXXXXXXXXXXXXXXXXX...++++++++++++++++++++++++++++++++++++++",
"++++++++++++++++++++++++++++++++++++..XXXXXXXXXXXXXXXXXXXXXXXXXXXXXXXXXXXXXXXXXXXXXXXXXXXX..++++++++++++++++++++++++++++++++++++",
"++++++++++++++++++++++++++++++++++..XXXXXXXXXXXXXXXXXXXXXXXXXXXXXXXXXXXXXXXXXXXXXXXXXXXXXXXX..++++++++++++++++++++++++++++++++++",
"++++++++++++++++++++++++++++++++++.XXXXXXXXXXXXXXXXXXXXXXXXXXXXXXXXXXXXXXXXXXXXXXXXXXXXXXXXXX.++++++++++++++++++++++++++++++++++",
"+++++++++++++++++++++++++++++++++.XXXXXXXXXXXXXXXXXXXXXXXXXXXXXXXXXXXXXXXXXXXXXXXXXXXXXXXXXXXX.+++++++++++++++++++++++++++++++++",
"++++++++++++++++++++++++++++++++.XXXXXXXXXXXXXXXXXXXXXXXXXXXXXXXXXXXXXXXXXXXXXXXXXXXXXXXXXXXXXX.++++++++++++++++++++++++++++++++",
"+++++++++++++++++++++++++.......XXXXXXXXXXXXXXXXXXXXXXXXXXXXXXXXXXXXXXXXXXXXXXXXXXXXXXXXXXXXXXXX.......+++++++++++++++++++++++++",
"++++++++++++++++++++++++.XXXXXXXXXXXXXXXXXXXXXXXXXXXXXXXXXXXXXXXXXXXXXXXXXXXXXXXXXXXXXXXXXXXXXXXXXXXXXX.++++++++++++++++++++++++",
"++++++++++++++++++++++++.XXXXXXXXXXXXXXXXXXXXXXXXXXXXXXXXXXXXXXXXXXXXXXXXXXXXXXXXXXXXXXXXXXXXXXXXXXXXXX.++++++++++++++++++++++++",
"+++++++++++++++++++++++.XXOOXXXXXXXXXXXXXXXXXXXXXXXXXXXXXXXXXXXXXXXXXXXXXXXXXXXXXXXXXXXXXXXXXXXXXXXXXXXX.+++++++++++++++++++++++",
"++++++++++++++++++++++.OOOOXXXXXXXXXXXXXXXXXXXXXXXXXXXXXXXXXXXXOOOXXXXXXXXXXXXXXXXXXXXXXXXXXXXXXXXXXXXXX..++++++++++++++++++++++",
"+++++++++++++++++++++.OXXXXXXXXXXXXXXXXXXXXXXXXXXXXXXXXXXXXXXXXXXOXXOOOOXXXXXXXXXXXXXXXXXXXXXXXXXXXXXXXXX..+++++++++++++++++++++",
"++++++++++++++++++++.XOXXXXXXXXXXXXXXXXXXXXXXXXXXXXXXXXXXXXXXXXXXOOOXXXOXXXXXXXXXXXXXXXXXXXXXXXXXXXXXXXXXXX.++++++++++++++++++++",
"+++++++++++++++++++.XOOXXXXXXXXXXXXXXXXXXXXXXXXXXXXXXXXXXXXXXXXXXXXXXXXXOXXXXXXXXXXXXXXXXXXXXXXXXOOOOOXXXXXX.+++++++++++++++++++",
"++++++++++++++++++OOOOXXXXXXXXXXXXXXXXXXXXXXXXXXXXXXXXXXXXXXXXXXXXXXXXXXOXXXXXXXXXXXXXXXXXXXXXXXOXXXXXOXXXXXX.++++++++++++++++++",
"+++++++++++++++++OOXXXXXXXXXXXXXXXXXXXXXXXXXXXXXXXXXXXXXXOOOOXXXXXXXXXXXOXXXXXXXXXXXXXXXXXXXXXXXXXXXXXXOXXXXXX.+++++++++++++++++",
"+++++++++++++++++OXXXXXXXXXXXXXXXXXXXXXXXXXXXXXXXXXXXOOOOOXXOOOOXXXXXXXXXOXXXXXXXXXXXXXXXXXXXXXXXXXXXXXOOOOOXX.+++++++++++++++++",
"+++++++++++++++++OXXXXXXXXXXXXXXXXXXXXXXXXXXXXXXXOOOOXXXOXXXXXXOXXXXXXXXXXOXXXXXXXXXXXXXXXXXXXXXXXXXXXXXOXXOXX.+++++++++++++++++",
"+++++++++++++++++OXXXXXXXXXXXXXXXXXXXXXXXXXXXXXXOOXXOXXXXXXXXXXOOXXXXXXXXXOXXXXXXOOXXXXXXXXXXXXXXXXXXXXXXXXXOX.+++++++++++++++++",
"+++++++++++++++++OXXXXXXXXXXXXXXXXXXXXXXXXXXXOOOOXXXXXXXXXXXXXXXXOXXXXXXXXOXXXXXOXOXXXXXXXXXXXXXXXXXXXXXXXXXXO.+++++++++++++++++",
"+++++++++++++++++.XXXXXXXXXXXXXXXXXXXXXXXXXXXOXXXXXXXXXXXXXXXXXXXXOXXXXXXXXOXXXOXXXOXXXXXXXXXXXXXXXXXXXXXXXXXX.+++++++++++++++++",
"+++++++++++++++++.XXXXXXXXXXXXXXXXXXXXXXXXXXXXXXXXXXXXXXXXXXXXXXXXOXXXXXXXXOXXOXXXXOXXXXXXXXXXXXXXXXXXXXXXXXXX.+++++++++++++++++",
"+++++++++++++++++.XXXXXXXXXXXXXXXXXXXXXXXXXXXXXXXXXXXXXXXXXXXXXXXXXXXXXXXXXXOOXXXXXOXXXXXXXXXXXXXXXXXXXXXXXXXX.+++++++++++++++++",
"+++++++++++++++++.XXXXXXXXXXXXXXXXXXXXXXXXXXXXXXXXXXXXXXXXXXXXXXXXXXXXXXXXXXOOXXXXXOOOOOOOOOXXXXXXXXXXXXXXXXXX.+++++++++++++++++",
"+++++++++++++++++.XXXXXXXXXXXXXXXXXXXXXXXXXXXXXXXXXXXXXXXXXXXXXXXXXXXXXXXXXXOXXXXXXOOXXXXXXXXXXXXXXXXXXXXXXXXX.+++++++++++++++++",
"+++++++++++++++++.XXXXXXXXXXXXXXXXXXXXXXXXXXXXXXXXXXXXXXXXXXXXXXXXXXXXXXXXXXXXXXXXXOXXXXXXXXXXXXXXXXXXXXXXXXXX.+++++++++++++++++",
"+++++++++++++++++.XXXXXXXXXXXXXXXXXXXXXXXXXXXXXXXXXXXXXXXXXXXXXXXXXXXXXXXXXXXXXXXXXXXXXXXXXXXXXXXXXXXXXXXXXXXX.+++++++++++++++++",
"+++++++++++++++++.XXXXXXXXXXXXXXXXXXXXXXXXXXXXXXXXXXXXXXXXXXXXXXXXXXXXXXXXXXXXXXXXXXXXXXXXXXXXXXXXXXXXXXXXXXXX.+++++++++++++++++",
"+++++++++++++++++.XXXXXXXXXXXXXXXXXXXXXXXXXXXXXXXXXXXXXXXXXXXXXXXXXXXXXXXXXXXXXXXXXXXXXXXXXXXXXXXXXXXXXXXXXXXX.+++++++++++++++++",
"++++++++++++++++.XXXXXXXXXXXXXXXXXXXXXXXXXXXXXXXXXXXXXXXXXXXXXXXXXXXXXXXXXXXXXXXXXXXXXXXXXXOOOOOXXXXXXXXXXXXXXX.++++++++++++++++",
"+++++++++++++++.XXXXXXXXXXXXXXXXXXXXXXXXXXXXXXXXXXXXXXXXXXXXXXXXXXXXXXXXXXXXXXXXXXXXXXXXXXOXXXXXXXXXXXXXXXXXXXXX.+++++++++++++++",
"+++++++++++++++.XXXXXXXXXXXXXXXXXXXXXXXXXXXXXXXXXOOXXXXXXXXXXXXXXXXXXXXXXXXXXXXXXXXXXXXXXXOXXXXXXXXXXXXXXXXXXXXX.+++++++++++++++",
"+++++++++++++++.XXXXXXXXXXXXXXXXXXXXXXXXXXXXXXXXXXOOXXXXXXXXXXXXXXXXXXXXXXXXXXXXXXXXXXXXXXOXXXXXXXXXXXXXXXXXXXXX.+++++++++++++++",
"++++++++++++++.XXXXXXXXXXXXXXXXXXXXXXXXXXXXXXXXXXXXOOXXXXXXXXXXXXXXXXXXXXXXXXXXXXXXXXXXXXXOOXXXXXXXXXXXXXXXXXXXXX.++++++++++++++",
"++++++++++++++.XXXXXXXXXXXXXXXXXXXXXXXXXXXXXXXXXXXXXOXXXXXXXXXXXXXXXXXXXXXXXXXXXXXXXXXXXXOXXXXXXXXXXXXXXXXXXXXXXX.++++++++++++++",
"++++++++++++++.XXXXXXXXXXXXXXXXXXXXXXXXXXXXXXXXXXXXOOOXXXXXXXXXXXXXXXXXXXXXXXXXXXXXXXXXXXOXXXXXXXXXXXXXXXXXXXXXXX.++++++++++++++",
"+++++++++++++.XXXXXXXXXXXXXXXXXXXXXXXXXXXXXXXXXXXXXXXXOXXXXXXXXXXXXXXXXXXXXXXXXXXXXXXXXXOXXXXXXXXXXXXXXXXXXXXXXXXX.+++++++++++++",
"+++++++++++++.XXXXXXXXXXXXXXXXXXXXXXXXXXXXXXXXXXXXXXXXXOXXXXXXXXXXXXXXXXXXXXXXXXXXXXXXXOXXXXXXXXXXXXXXXXXXXXXXXXXX.+++++++++++++",
"++++++++++++.XXXXXXXXXXXXOOXXXXXXXXXXXXXXXXXXXXXXXXXXXXOXXXXXXXXXXXXXXOOOOOOOOOOXXXXXXXOXXXXXXXXXXXXXXXXXXXXXXOOOOX.++++++++++++",
"+++++++++++.XXXXXXXXXXXXXXXOOOOXXXXXXXXXXXXXXXXXXXXXXXXXOXXXXXXXXXXOOOOXOXXXOXXOOXXXXXOXXXXXXXXXXXXXXXXXXXXXXXXXXOOX.+++++++++++",
"+++++++++++.XXXXXXXXXXXXXXXXXXXOOXXXXXXXXXXXXXXXXXXXXXXXOXXXXXXXXXOXXOXXXXXXXXXXOOOOXXOXXXXXXXXXXXXXXXXXXXXXXXXXXXOX.+++++++++++",
"+++++++++++.XXXXXXXXXXXXXXXXXXXXXXXXXXXXXXXXXXXXXXXXXXXXOXXXXXXXXXOXXXXXXXXXXXXXXXXOXOOOXXXXXXXXXXXXXXXXXXXXXXXXXXOOO+++++++++++",
"+++++++++++.XXXXXXXXXXXXXXXXOOOOXXXXXXXXXXXXXXXXXXXXXXXOOOOXXXXXXXXXXXXXXXXXXXXXXXXOOXXXXXXXXXXXXXXXXXXXXXXXXXXXXXXXO+++++++++++",
"+++++++++++.XOXXXXXXXXXXXXXXXXXXOOXXXXXXXXXXXXXXXXXXXXXXXXOXXXXXXXXXXXXXXXXXXXXXXXXOOXXXXXXXXXXXXXXXXXXXXXXXXXXXXXXXO+++++++++++",
"+++++++++++.XOXXXXXXXXXXXXXXXXXXXOOXXXXXXXXXXXXXXXXXXXXXXXOXXXXXXXXXXXXXXXXXXXXXXXXOOXXXXXXXXXXXXXXXXXXXXXXXXXXXXXXX.+++++++++++",
"+++++++++++.XOXXXXXXXXXXXXXXXXXXXXOXXXXXXXXXXXXXXXXXXXXXXXOXXXXXXXXXXXXXXXXXXXXXXXXOXXXXXXXXXXXXXXXXXXXXXXXXXXXXXXXX.+++++++++++",
"++++++++++.XOOOXXXXXXXXXXXXXXXXXXXOXXXXXXXXXXXXXXXXXXXXXXOOXXXXXXXXXXXXXXXXXXXOOOOOOXXXXXXXXXXXXXXXXXXXXXXXXXXXXXXXXX.++++++++++",
"+++++++++++.OXXXXXXXXXXXXXXXXXXXXXOOOOOOXXXXXXXXXXXXXXXXXOXXXXXXXXXXXXXXXXXXXOXXXXXXXXXXXXXXXXXXXXXXXXXXXXXXXXXXXXXX.+++++++++++",
"+++++++++++.OXXXXXXXXXXXXXXXXXXXXXXXXXXOXXXXXXXXXXXXXXXXXXXXXXXXXXXXXXXXXXXXOXXXXXXXXXXXXXXXXXXXXXXXXXXXXXXXXXXXXXXX.+++++++++++",
"+++++++++++.OXXXXXXXXXXXXXXXXXXXXXXXXXXOXXXXXXXXXXXXXXXXXXXXXXXXXXXXXXXXXXXXOXXXXXXXXXXXXXXXXXXXXXXXXXXXXXXXXXXXXXXX.+++++++++++",
"+++++++++++.OXXXXXXXXXXXXXXXXXXXXXXXXOOOXXXXXXXXXXXXXXXXXXXXXXXXXXXXXXXXXXXXOXXXXXXXXXXXXXXXXXXXXXXXXXXXXXXXXXXXXXXX.+++++++++++",
"+++++++++++.OXXXXXXXXXXXXXXXXXOOOOOOOXXOOOOXXXXXXXXXXXXXXXXXXXXXXXXXXXXXXXXOXXXXXXXXXXXXXXXXXXXXXXXXXXXXXXXXXXXXXXXX.+++++++++++",
"+++++++++++.XXXXXXXXXXXXXXXXXOOXOXXXXXXOOOOOOXXXXXXXXXXXXXXXXXXXXXXXXXXXXXXOXXXXXXXXXXXXXXXXXXXXXXXXXXXXXXXXXXXXXXXX.+++++++++++",
"++++++++++++.XXXXXXXXXXXXXXXOXXXXXXXXXXXXXXOOOOXXXXXXXXXXXXXXXXXXXXXXXXXXXOXXXXXXXXXXXXXXXXXXXXXXXXXXXXXXXXXXXXXXXX.++++++++++++",
"++++++++++++.XXXXXXXXXXXXXXXOXXXXXXXXXXXXXXXXXOXXXXXXXXXXXXXXXXXXXXXXXXXXXOXXXXXXXXXXXXXXXXXXXXXXXXXXXXXXXXXXXXXXXX.++++++++++++",
"+++++++++++++.XXXXXXXXXXXXXXOXXXXXXXXXXXXXXXXXOOXXXXXXXXXXXXXXXXXXXXXXXXXOOXXXXXXXXXXXXXXXXXXXXXXXXXXXXXXXXXXXXXXX.+++++++++++++",
"++++++++++++++.XXXXXXXXXXXXXXXXXXXXXXXXXXXXXXXOOXXXXXXXXXXXXXXXXXXXXXXXXOOOOOOXXXXXXXXXXXXXXXXXXXXXXXXXXXXXXXXXXX.++++++++++++++",
"+++++++++++++++.XXXXXXXXXXXXXXXXXXXXXXXXXXXXXXOOXXXXXXXXXXXXXXXXXXXXXXXXOXXXXOXXXXXXXXXXXXXXXXXXXXXXXXXXXXXXXXXX.+++++++++++++++",
"++++++++++++++++.XXXXXXXXXXXXXXXXXXXXXXXXXXXXXXOXXXXXXXXXXXXXXXXXXXXXXXXOXXXXXXXXXXXXXXXXXXXXXXXXXXXXXXXXXXXXXX.++++++++++++++++",
"+++++++++++++++++.XXXXXXXXXXXXXXXXXXXXXXXXXXXXXOXXXXXXXXXXXXXXXXXOOOOOOOOXXXXXXXXXXXXXXXXXXXXXXXXXXXXXXXXXXXXX.+++++++++++++++++",
"++++++++++++++++++.XXXXXXXXXXXXXXXXXXXXXXXXXXXOOXXXXXXXXXXXXXXXOOOXXXXXXOXXXXXXXXXXXXXXXXXXXXXXXXXXXXXXXXXXXX.++++++++++++++++++",
"++++++++++++++++++..XXXXXXXXXXXXXXXXXXXXXXXXXXOOOOOOXXXXXXXXXXXXXXXXXXXXXXXXXXXXXXXXXXXXXXXXXXXXXXXXXXXXXXXX++++++++++++++++++++",
"++++++++++++++++++++.XXXXXXXXXXXXXXXXXXXXXXXXXXXXXXXOOXXXXXXXXXXXXXXXXXXXXXXXXXXXXXXXXXXXXXXXXXXXXXXXXXXXXX+++++++++++++++++++++",
"++++++++++++++++++++..XXXXXXXXXXXXXXXXXXXXXXXXXXXXXXXOXXXXXXXXXXXXXXXXXXXXXXXXXXXXXXXXXXXXXXXXXXXXXXXXXXX+++++++++++++++++++++++",
"+++++++++++++++++++++.XXXXXXXXXXXXXXXXXXXXXXXXXXXXXXXXOXXXXXXXXXXXXXXXXXXXXXXXXXXXXXXXXXXXXXXXXXXXXO++++++++++++++++++++++++++++",
"+++++++++++++++++++++.XXXXXXXXXXXXXXXXXXXXXXXXXXXXXXXXOXXXXXXXXXXXXXXXXXXXXXXXXXXXXXXXXXXXXXXXXXXXXO++++++++++++++++++++++++++++",
"+++++++++++++++++++++.XXXXXXXXXXXXXXXXXXXXXXXXXXXXXXXXOXXXXXXXXXXXXXXXXXXXXXXXXXXXXXXXXXXXXXXXXXXXXO++++++++++++++++++++++++++++",
"++++++++++++++++++++++XXXXXXXXXXXXXXXXXXXXXXXXXXXXXXXXOXXXXXXXXXXXXXXXXXXXXXXXXXXXXXXXXXXXXXXXXXXXOO++++++++++++++++++++++++++++",
"+++++++++++++++++++++++XXXXXXXXXXXXXXXXXXXXXXXXXXXXXXXOXOOOOXXXXXXXXXXXXXXXXXXXXXXXXXXXXXXXXXXXXXOO+++++++++++++++++++++++++++++",
"+++++++++++++++++++++++++XXXXXXXXXXXXXXXXXXXXXXXXXXXXXOOOXXXXXXXXXXXXXXXXXXXXXXXXXXXXXXXXXXXXXXXOO++++++++++++++++++++++++++++++",
"+++++++++++++++++++++++++++++XXXXXXXXXXXXXXXXXXXXXXXXXXXXXXXXXXXXXXXXXXXXXXXXXXXXXXXXXXXXXXXXXXXX+++++++++++++++++++++++++++++++",
"++++++++++++++++++++++++++++++XXXXXXXXXXXXXXXXXXXXXXXXXXXXXXXXXXXXXXXXXXXXXXXXXXXXXXXXXXXXXXXXX+++++++++++++++++++++++++++++++++",
"+++++++++++++++++++++++++++++++++XXXXXXXXXXXXXXXXXXXXXXXXXXXXXXXXXXXXXXXXXXXXXXXXXXXXXXXXXXXXX++++++++++++++++++++++++++++++++++",
"++++++++++++++++++++++++++++++++++++XXXXXXXXXXXXXXXXXXXXXXXXXXXXXXXXXXXXXXXXXXXXXXXXXXXXXXXX++++++++++++++++++++++++++++++++++++",
"++++++++++++++++++++++++++++++++++++++XXX XXXXXXXXXXXXXXXXXXXXXXXXXXXXXXXXXXXXXXXOX  XXXX+++++++++++++++++++++++++++++++++++++++",
"+++++++++++++++++++++++++++++++++++++++++ OOXXXXXXXXXXXX   XXXXXXXXXXXXXXXXXXXXXOO  o+++++++++++++++++++++++++++++++++++++++++++",
"+++++++++++++++++++++++++++++++++++++++++  OOOOOXXXXXOX  o   XXXXXXXXX       OOOO  oo+++++++++++++++++++++++++++++++++++++++++++",
"+++++++++++++++++++++++++++++++++++++++++o     OOOOOOX  oooo    XXXXX  ooooo      ooo+++++++++++++++++++++++++++++++++++++++++++",
"+++++++++++++++++++++++++++++++++++++++++oooooo       ooooooooo       ooooooooo  oooo+++++++++++++++++++++++++++++++++++++++++++",
"+++++++++++++++++++++++++++++++++++++++++oooooooooooooooooooooooooooooooooooooooooooo+++++++++++++++++++++++++++++++++++++++++++",
"+++++++++++++++++++++++++++++++++++++++++ooooooooooooooooooooooooooooooooooooooooooooo++++++++++++++++++++++++++++++++++++++++++",
"++++++++++++++++++++++++++++++++++++++++ooooooooooooooooooooooooooooooooooooooooooooooo+++++++++++++++++++++++++++++++++++++++++",
"+++++++++++++++++++++++++++++++++++++++oooooooooooooooooooooooooooooooooooooooooooooooo+++++++++++++++++++++++++++++++++++++++++",
"+++++++++++++++++++++++++++++++++++++++ooooooooooooooooooooooooooooooooooooooooooooooooo++++++++++++++++++++++++++++++++++++++++",
"+++++++++++++++++++++++++++++++++++++++oooooooooooooooooooooooooooooooooooooooooooooooooo+++++++++++++++++++++++++++++++++++++++",
"+++++++++++++++++++++++++++++++++++++++oooooooooooooooooooooooooooooooooooooooooooooooooooo+++++++++++++++++++++++++++++++++++++",
"++++++++++++++++++++++++++++++++++++oooooooooooooooooooooooooooooooooooooooooooooooooooooooo++++++++++++++++++++++++++++++++++++",
"++++++++++++++++++++++++++++++++++++oooooooooooooooooooooooooooooooooooooooooooooooooooooooo++++++++++++++++++++++++++++++++++++",
"+++++++++++++++++++++++++++++++++++++    o       oooooooooooooooooooooooooooooo     ooooooo+++++++++++++++++++++++++++++++++++++",
"++++++++++++++++++++++++++++++++++++++++   ++++++  ooooooooooooooooooooooooooo ++++   o  +++++++++++++++++++++++++++++++++++++++",
"++++++++++++++++++++++++++++++++++++++++++++++++++  ooooooooooooooooooooooooo  +++++++  ++++++++++++++++++++++++++++++++++++++++",
"+++++++++++++++++++++++++++++++++++++++++++++++++++ oooooooooooooooooooooooo  ++++++++++++++++++++++++++++++++++++++++++++++++++",
"+++++++++++++++++++++++++++++++++++++++++++++++++++ oooooooooooooooooooooooo +++++++++++++++++++++++++++++++++++++++++++++++++++",
"+++++++++++++++++++++++++++++++++++++++++++++++++++    oooo          oooo    +++++++++++++++++++++++++++++++++++++++++++++++++++",
"+++++++++++++++++++++++++++++++++++++++++++++++++++  + ooo +++ ++ ++  ooo +  +++++++++++++++++++++++++++++++++++++++++++++++++++",
"++++++++++++++++++++++++++++++++++++++++++++++++++++++ oo  ++++++++++  oo ++++++++++++++++++++++++++++++++++++++++++++++++++++++",
"++++++++++++++++++++++++++++++++++++++++++++++++++++++    ++++++++++++    ++++++++++++++++++++++++++++++++++++++++++++++++++++++",
"++++++++++++++++++++++++++++++++++++++++++++++++++++++++++++++++++++++++++++++++++++++++++++++++++++++++++++++++++++++++++++++++",
"++++++++++++++++++++++++++++++++++++++++++++++++++++++++++++++++++++++++++++++++++++++++++++++++++++++++++++++++++++++++++++++++",
"++++++++++++++++++++++++++++++++++++++++++++++++++++++++++++++++++++++++++++++++++++++++++++++++++++++++++++++++++++++++++++++++",
"++++++++++++++++++++++++++++++++++++++++++++++++++++++++++++++++++++++++++++++++++++++++++++++++++++++++++++++++++++++++++++++++",
"++++++++++++++++++++++++++++++++++++++++++++++++++++++++++++++++++++++++++++++++++++++++++++++++++++++++++++++++++++++++++++++++",
"++++++++++++++++++++++++++++++++++++++++++++++++++++++++++++++++++++++++++++++++++++++++++++++++++++++++++++++++++++++++++++++++",
"++++++++++++++++++++++++++++++++++++++++++++++++++++++++++++++++++++++++++++++++++++++++++++++++++++++++++++++++++++++++++++++++",
"++++++++++++++++++++++++++++++++++++++++++++++++++++++++++++++++++++++++++++++++++++++++++++++++++++++++++++++++++++++++++++++++",
"++++++++++++++++++++++++++++++++++++++++++++++++++++++++++++++++++++++++++++++++++++++++++++++++++++++++++++++++++++++++++++++++",
"++++++++++++++++++++++++++++++++++++++++++++++++++++++++++++++++++++++++++++++++++++++++++++++++++++++++++++++++++++++++++++++++",
"++++++++++++++++++++++++++++++++++++++++++++++++++++++++++++++++++++++++++++++++++++++++++++++++++++++++++++++++++++++++++++++++",
"++++++++++++++++++++++++++++++++++++++++++++++++++++++++++++++++++++++++++++++++++++++++++++++++++++++++++++++++++++++++++++++++",
"++++++++++++++++++++++++++++++++++++++++++++++++++++++++++++++++++++++++++++++++++++++++++++++++++++++++++++++++++++++++++++++++",
"++++++++++++++++++++++++++++++++++++++++++++++++++++++++++++++++++++++++++++++++++++++++++++++++++++++++++++++++++++++++++++++++",
"++++++++++++++++++++++++++++++++++++++++++++++++++++++++++++++++++++++++++++++++++++++++++++++++++++++++++++++++++++++++++++++++",
"++++++++++++++++++++++++++++++++++++++++++++++++++++++++++++++++++++++++++++++++++++++++++++++++++++++++++++++++++++++++++++++++",
"++++++++++++++++++++++++++++++++++++++++++++++++++++++++++++++++++++++++++++++++++++++++++++++++++++++++++++++++++++++++++++++++"
};
