/* XPM */
static char *wall1711027091[] = {
/* columns rows colors chars-per-pixel */
"128 128 5 1 ",
"  c #59682F",
". c #A29C2F",
"X c #E6DD3D",
"o c #869E42",
"O c #ACC072",
/* pixels */
"OOOOOOOOOOOOOOOOOOOOOOOOOOOOOOOOOOOOOOOOOOOOOOOOOOOOOOOOOOOOOOOOOOOOOOOOOOOOOOOOOOOOOOOOOOOOOOOOOOOOOOOOOOOOOOOOOOOOOOOOOOOOOOOO",
"OOOOOOOOOOOOOOOOOOOOOOOOOOOOOOOOOOOOOOOOOOOOOOOOOOOOOOOOOOOOOOOOOOOOOOOOOOOOOOOOOOOOOOOOOOOOOOOOOOOOOOOOOOOOOOOOOOOOOOOOOOOOOOOO",
"OOOOOOOOOOOOOOOOOOOOOOOOOOOOOOOOOOOOOOOOOOOOOOOOOOOOOOOOOOOOOOOOOOOOOOOOOOOOOOOOOOOOOOOOOOOOOOOOOOOOOOOOOOOOOOOOOOOOOOOOOOOOOOOO",
"OOOOOOOOOOOOOOOOOOOOOOOOOOOOOOOOOOOOOOOOOOOOOOOOOOOOOOOOOOOOOOOOOOOOOOOOOOOOOOOOOOOOOOOOOOOOOOOOOOOOOOOOOOOOOOOOOOOOOOOOOOOOOOOO",
"OOOOOOOOOOOOOOOOOOOOOOOOOOOOOOOOOOOOOOOOOOOOOOOOOOOOOOOOOOOOOOOOOOOOOOOOOOO  OOOOOOOOOOOOOOOOOOOOOOOOOOOOOOOOOOOOOOOOOOOOOOOOOOO",
"OOO      OOOOOOOOOOOOOOOOOOOOOOOOOOOOOOOOOOOOOOOOOOOOOOOOOO     OOOOOOOO   o OOOOOOOO  OOOOOOOOOOOOOOOOOOOOOOOOOOO          OOOO",
"OO ooooo     OOOOOOOOOOOOOOOOOOOOOOOOOOOOOOOOOOOOOOOOOOOO  oooo OOOOOOOO ooo OOOOOOOOO  OOOOOOOOOOOOOOOOOOOOOOOO   ooooooooo  OO",
"O oooooooooo   OOOOOOOOOOOOOOOOOOOOOOOOOOOOOOOOOOOOOOOO  oooooo OOOOOOOO ooo OOOOOOOOO o  OOOOOOOOOOOOOOOOOOOO  oooooooooo    OO",
"  oo oooooooo  OOOOOOOOOO     XXXOOOOOOOOOOOOOOOOOOOOOO oooo oo OOOOOOOO ooo OOOOOOOOO oo  OOOOOOOOOOOOOOOOOOO ooooooo      o  O",
" ooo    ooo   OOOOOOOOO   ooo XXXXXOOOOO       OOOOOOOO oo   oo OOOOOOOO oo  OOOOOOOOO ooo OOOOOOOOOOOOOOOOOOOO        OOOO oo O",
" ooo OOO    OOOOOOOOOOO ooooo XXXXX     ooooooo   OOOOO o OOO o OOOOOOOO oo  OOOOOOOOO ooo OOOOOOOOOOOOOOOOOOOOOOOOOOOOOOO  oo O",
" oo  OOOOOOOOOOOOOOOOO oooooo XXX     oooooooooooo  OOO  OOOO   OOOOOOOO ooo   OOOOOOOO ooo OOOOOOOOOOOOOOO    OOOOOOOOOOO ooo O",
"   OOOOOOOOOOOOOOOOOOO  ooo  XXXX ooo oooooooooooooo   OOOOOOOOOOOOOO    ooooo  OOOOOOO ooo OOOOOOO     OO  oo OOOOOOOOOOO ooo O",
"O  OOOOOOOOOOOOOOOOOOOO ooo .XXXX ooo  oooooooooooooooo   OOOOOOOOOO  ooooooooo  OOOOOOO oo OOOOOO ooooo O   o  OOOOOOOOOO ooo O",
"OOOOOOOOO               ooo .XXXX ooo    oooooooooooooooo   OOOOOOO  oooo        OOOOOOOO   OOOOO oooooo  XXX o OOOOOOOOOO  o  O",
"OOOOOOOO  ooooooooooooo  oo ..XX  ooo OO  ooooooooooooooooo  OOOOO  ooooo OOOOOOOOOOOOOOOO  OOOOO oooo   XXXX oo OOOOOOOOOO o OO",
"OOOOOOO  oooooooooooooo   oo ... oooo OOOO  ooooooooooooooo  OOOOO oooooo OOOOOOOOOOOOOOOOOOOOOOO oooo .XXXXX  o OOOOOOOOOO o OO",
"OOOOOOO ooooooooooooooo O  oo    ooo  OOOOOO   oooooooooo   OOOOOO ooooo OOOOOO         OOOOOOOOO oooo ....XXX o OOOOOOOOOOO  OO",
"OOOOOO  oooooooooooooo OO    ooooo   OOOOOOOOO           OOOOOOOOO oooo  OOOOOO oooooooo   OOOOOO oooo  .....X o OOOOOOOOOOO  OO",
"OOOOOO ooooooooooooooo O ooo         OOOOOOOOOOOOOOOOOOOOOOOOOOOOOO oo  OOOOOOO ooooooooooo    OO  oooo        o OOOOOOOOOOOOOOO",
"OOOOO oooooooooooooo   O oooo     oo  OOOOOOOOOOOOOOOOOOOOOOOOOOOOO o  OOOOOOOO ooooooooooooooo OO oooooooooooo  OOOOOOOOOOOOOOO",
"OOOOO  ooooooooooo   OOO oooo      oo  OOOOOOOOOOOOOOOOOOOOOOOOOOOO   OOOOOOOOO oooooooooooooooo    ooooooooo      OOOOOOOOOOOOO",
"OOOOOOO           OOOOO ooooo OOOO  oo  OOOOOOOOOOOOOOOOOOOOOOOOOOOOOOOOOOOOOOO oooooooooooooooooo  oooooo   oo oo     OOOOOOOOO",
"OOOOOOOOOOOOOOOOOOOOOOO oooo OOOOOO      OOOOOOOOOOOOOOOOOOOOOOOOOOOOOOOOOOOOOO ooooooooooooooooooo   ooo oooooooooooo   OOOOOOO",
"OOOOOOOOOOOO  OOOOOOOOO oooo OOOOOOOOOOOOOOOOOOOOOOOOOOOOOOOOOOOOOOOOOOOOOOOOOOO   ooooooooooooooooo      oooooooooooooo  OOOOOO",
"OOOOOOOOOOO o  OOOOOOOO oooo OOOOOOOOOOOOOOOOO      OOOOOOOOOOOOOOOOOOOOOOOOOOOOOOO    oooooooooooooo    ooooooooooooooooo  OOOO",
"OOOOOOOOOOO oo OOOOOOOO  oo  OOOOO      OOOO  ooooo OOOOOOOOOOOOOOOOOOOOO OOOOOOOOOOOOO   oooooooo    oo  oooooooooooooooooo OOO",
"OOOOOOOOOO ooo  OOOOOOOO  o OOOOOO oooo  O  ooooooo OOOOOOOOOOOOOOOOOOOOO   OOOOOOOOOOOOOO        OO  oo   ooooooooooooooooo OOO",
"OOOOOOOOOO oooo OOOOOOOOO   OOOOOOO oooo O ooooooo  OOOOOOOOOOOOOOOOOOOOO oo  OOOOOOOOOOOOOOOOOOOOO  ooo OO  ooooooooooooo    OO",
"OOOOOOOOOO oooo OOOOOOOOOOOOOOOOOOO  ooo  oooooooo OOOOOOOOOOOOOOOOOOOOOO ooo  OOOOOOOOOOOOOOOOOOOO oooo OOO   ooooooooo  OOOOOO",
"OOOOOOOOOO oooo OOOOOOOOOOOOOOOOOOOO  oo oooooooo  OOOOOOOOOOOOOOOOOOOOOOO oooo OOOOOOOOOOOOOOOOOOO oooo OOOOO  ooooo   OOOOOOOO",
"OOOOOOOOOO oooo OOOOOOOOOOOOOOOOOOOOO  ooooooooo  OOOOOOOOOOOOOOOOOOOOOOOO oooo  OOOOOOOOOOOOOOOOOO ooo  OOOOOO      OOOOOOOOOOO",
"OOOOOOOOOO oooo OOOOOOOOOOOOOOOOOOOOO ooooooooo  OOOOOOO   OOOOOOOOOOOOOOOO oooo  OOOOOOOOOOOOOOOOO ooo OOOOOOOOOOOOOOOOOOOOOOOO",
"OOOOOOOOOO ooo  OOOOOOOOOOOOOOOOOOOOO ooo       OOOO    oo OOOOOOOOOOOOOOOO ooooo  OOOOOOOO     OOO    OOOOOOOOOOOOOOOOOOOOOOOOO",
"OOOOOOOOOOO oo OOOOOOOOOOOOOOOOOOOOOO oo  OOOOOOOOO ooooo OOOOOOOOOOOOOOOOOO ooooo OOOOO   ooooo  OOOOOOOOOOOOOOOOOOOOOOOOOOOOOO",
"OOOOOOOOOOO oo OOOOO    OOOOOOOOOOOOO o  OOOOOOOOO ooooo OOOOOOOOOOOOOOOOOOO ooooo  OO  oooooooooo  OOOOOOOOOOOOOOOOOOOOO  OOOOO",
"OOOOOOOOOOO o OOO   ooo  OOOOOOOOOOOO  OOOOOOOOOO ooooo XXXOOOOOOOOOOOOOOOOOO ooooo   ooooooooooooo  OOOOOOOOOOOOOOOOOO    OOOOO",
"OOOOOOOOOOO      oooooooo OOOOOOOOOOO OOOOOOOOOO oooo  XXXX  OOOOOOOOOOOOOOOOO ooooooooooooooooooo   OOOOOOOOOOOOOOOOO ooo OOOOO",
"OOOOOOOOOO    ooooooooooo OOOOOOOOOOOOOOOOOOOOOO oooo XXXXX O  OOOOOOOOOOOOOOOO  oooooooooo       OOOOOOOOOOOOOOOOOOO oooo OOOOO",
"OOOOOOOOO  oo ooooooooooo OOOOOOOOO       OOOOOO ooo  XXXXXX o  OOOOOOOOOOOOOOOO  ooooo     OOOOOOOOOOOOOOOOOOOOOOOO  oooo OOOOO",
"OOOOOOOO  ooo  oooooooooo OOOOOO   ooooooo    OO ooo .XXXXXX oo  OOOOOOOOOOOOOOOO  oooo OOOOOOOOOOOOOOOOOOOOOOOOOOOO ooooo OOOOO",
"OOOOOOOO oooo O  oooooooo OOOO   ooooooooooooo   ooo .XXXXXX ooo OOOOOOOOOOOOOOOO ooooo OOOOOOOOOOOOOOOOOOOOOOOOOOOO oooo  OOOOO",
"OOOOOOO ooooo OO  oooooo  OOO  ooooooooooooooooooooo .XXXXXX ooo  OOOOOOOOOOOOOOO oooooo OOOOOOOOOOOOOOOOOOOOOOOOOOO o    OOOOOO",
"OOOOOO  oooooo OO   oooo OOOO oooooooooooooooooo ooo ..XXXXX oooo OOOOOOOOOOOOOOO oooooo OOOOOOOOOOOOOOOOOOOOOO      o  OOOOOOOO",
"OOOOOO ooooooo OOOO     OOOOO   ooooooooooooooo O oo ..XXXXX oooo OOOOOOOOOOOOOOO oooooo OOOOOOOOOOOOOOOOOOOOO  oooooooo OOOOOOO",
"OOOOOO ooooooo OOOOOOOOOOOOOOOOO               OO  o  .XXXXX ooo  OOOOOOOOOOOOOOO oooooo OOOOOOOOOOOOOOOOOOOO  oooooo   o OOOOOO",
"OOOOO oooooooo OOOOOOOOOOOOOOOOOOOOOOOOOOOOOOOOOOO  o ...... ooo    OOOOOOOOOOOOO  ooooo OOOOOOOOOOOOOOOOOOOO oooooo  O oo OOOOO",
"OOOOO oooooooo OOOOOOOOOOOOOOOOOOOOOOOOOOOOOOOOOOOO  o       oo ooo    OOOOOOOOOOO ooooo OOOOOOOOOOOOOOOOOOOO       OOOO o OOOOO",
"OOOOO oooooooo OOOOOOOOOOOOOOOOOOOOOOO  OOOOOOOOOOOO   ooooooo  oooooo   OOOOOOOOO  ooo  OOOOOOOOOOOOOOOOOOOOOOOOOOOOOOO   OOOOO",
"OOOOOO oooooo OOOOOOOOOOOOOOOOOOOOOOO   OOOOOOOOOOOOOO        OO ooooooo   OOOOOOOO  oo OOOOOOOOOOOOOOOOOOOOOOOOOOOOOOOOO  OOOOO",
"OOOOOO oooooo OOOOOOOOOOOOOOOOOOOOOO oo OOOOOOOOOOOOOOOO   OOOOOO  ooooooo  OOOOOOOOO   OOOOOOOOOOOOO     OOOOOOOOOOOOOOOOOOOOOO",
"OOOOOO oooooo OOOOOOOOOOOOOOOOOOOOO ooo OOOOOOOOO  OOOOOOOOOOOOOOO ooooooooo  OOOOOOO  OOOOOOOOOOOOOO  oo XXOOOOOOOOOOOOOOOOOOOO",
"OOOOOOO oooo  OOOOOOOOOOOOOOOOOOOO oooo OOOOOOOOO o  OOOOOOOOOOOOOO  oooooooo  OOOOOOOOOOOOOOOOOOOOO  o   XXOOOOOOOOOOOOOOOOOOOO",
"OOOOOOO  ooo OO   OOOOOOOOOOOOOOOO ooo  OOOOOOOOO oo  OOOOOOOOOOOOOO  oooooooo  OOOOOOOOOOOOOOOOOOO     XXXX  OOOOOOOOOOOOOOOOOO",
"OOOOOOOO oo OOO o OOOOOOOOOOOOOOOO  o       OOOOO oooo OOOOOOOOOOOOOOO  ooooooo OOOOOOOOOOOOOOOOOO oo ..XXX   OOOOOO       OOOOO",
"OOOOOOOOO  OOO oo XXXXX   OOOOOOOOO o  ooo   OOOO oooo  OOOOOOOOOOOOOOO    oooo OOOOOOOOOOOOOOOOO  oo ....  o       oooooo  OOOO",
"OOOOOOOOOOOOOO oo XXXXXX   OOOOOOOO oooo   OOOOOO  oooo OOOOOOOOOOOOOOOOOOO     OOOOOOOOOOOOOOOOO oooo     oo   ooooooooooo  OOO",
"OOOOOOOOOOOOO oo  XXXXXX oo OOOOOOO     OOOOOOOOOO oooo        OOOOOOOOOOOOOOOOOOOOOOOOOOOOOOOOOO ooooooooooo O  ooooooooooo  OO",
"OOOOOOOOOOOOO oo .XXXXXX oo  OOOOOOOOOOOOOOOOOOOOOO ooo  oooooo  OOOOOOOOOOOOOOOOOOOOOO    OOOOOO ooooooooooo OOO  oooooooooo  O",
"OOOOOOOOOOOOO oo .XXXXXX  oo OOOOOOOOOOOOOOOOOOOOOOO oooooooooooo OOOOOOOOOOOOOOOOO    oooo        ooooooooo  OOOOO   oooooooo O",
"OOOOOOOOOOOOO oo .XXXXXXX oo OOOOOOOOOOOOOOOOOOO     ooooooooooooo OOOOOOOOOOOOOO   oooooooooooooo  oooooooo OOOOOOOOO         O",
"OOO       OOO oo .XXXXXXX oo  OOOOOOOOOOOOOOOOO oooooo oooooooooooo  OOOOOOOOOOO  ooooooooooooooooo   ooooo  OOOOOOOOOOOOOOOOOOO",
"OO  oooo  OOO oo ...XXXXX ooo OOOOOOOOOOOOOOOO ooooooo  oooooooooooo OOOOOOOOOO ooooooooooooooooooooo        OOOOOOOOOOOOOOOOOOO",
"O  oooo  OOOO  o   ...X.. ooo OOOOOOOOOOOOOOOO oooooo O  ooooooooo   OOOOOOOOO  oooooooooooooooooooo    O oo   OOOOOOOOOOOOOOOOO",
"O       OOOOOO oooo  ... oooo OOOOOOOOOOOOOOOO ooooo  OO  oooooo   OOOOOOOOOOO oooooooooooooooooooo  OOOO oooo OOOOOOOO OOOOOOOO",
"OOOOOOOOOOOOOO ooooo    oooo  OOOOOOOOOOOOOOOO ooo   OOOOO       OOOOOOOOOOOO oooooooooooooooooooo OOOOOO oooo OOOOOOOO  OOOOOOO",
"OOOOOOOOOOOOOOO ooooooooooo  OOOOOOOOOOOOOOOOO o   OOOOOOOOOOOOOOOOOOOOOOOOO oooooooooooooooooo   OOOOOOO oooo  OOOOOO o  OOOOOO",
"OOOOOOOOOOOOOOO ooooooooo   OOOOOOOOOOOOOOOOOO  OOOOOOOOOOOOOOOOOOOOOOOOOOOO   ooooooooooooo   OOOOOOOOOO ooooo OOOOOO oo OOOOOO",
"OOOOOOOOOOOOOOO ooooooo   OOOOOOOOOOOOOOOOOOOOOOOOOOOOOOOOOOOOOOOOOOOOOOOOOOOOO             OOOOOOOOOOOOO ooooo OOOOOO oo  OOOOO",
"                 ooooo  OOOOOOOOOOOOOOOOOOOOOOOOOOOOOOOOOOOOOOOOOOOOOOOOOOOOOOOOOOOOOOOOOOOOOOOOOOOOOOOOO ooooo OOOOOO ooo OOOOO",
"oooooooooooooooo oooo  OOOOO        OOOOOOOOOOOO OOOOOOOOOOOOOOOOOOOOOOOOOOOOOOOOOOOOOOOOOOOOOOOOOOOOOOOO ooooo OOOOOO  oo OOOOO",
"ooooooooooooooooo  o   OO   oooooooo  OOOOOOOOOO  OOOOOOOOOOOOOOOOOOOOOOOOOOOOOOOOOOOOOOOOOOOOOOOOOOOOOOO  oooo OOOOOOO oo OOOOO",
" ooooooooooooo             oooooooooo  OOOOOOOOO    OOOOOOOOOOOOOOOOOOOOOOOOOOOOOOOOOOOOOOOOOOOOOOOOOOOOOOO ooo OOOOOOOO    OOOO",
"  oooooooooo  OOOOOO   oooooooooooooooo OOOOOOOOO o  OOOOOOOO    OOOOOOOOOOOOOOOOOOOOOOOOOOOOOOOOOOOOOOOOOOO    OOOOOOOO oo OOOO",
"O    oooo    OOOOOOOOO    oooooooooooooo OOOOOOOO oo  OOOOOO  oo XXX   OOOOOOOOOOOOOOOOOOOOOOO   OOOOOOOOOOOOO  OOOOOOO ooo OOOO",
"OOOO     OOOOOOOOOOOOOOOOO  oooooooooooo OOOOOOOO ooo  OOOO  ooo XXX o  OOOOOOOOOOOOOOOOOOOOOO oo  OOOOOOOOOOOOOOOOOOOO ooo OOOO",
"OOOOOOOOOOOOOOOOOOOOOOOOOOOO  ooooooooooo OOOOOOOO ooo  OOO ooo  XXXX o OOOOOOOOOOOOOOOOOOOOOO oooo OOOOOOOOOOOOOOOOOOO ooo OOOO",
"OOOOOOOOOOOOOOOOOOO  OOOOOOOO   ooooooooo OOOOOOOO ooooo  O ooo .XXXX o OOOOO       OOOOOOOOOO ooooo OOOOOOOOOOOOOOOOOO ooo OOOO",
"OOOOOOOOOOOOOOOOOOO o  OOOOOOOO   ooooooo OOOOOOOO oooooo    oo .XXXX o       ooooo    OOOOOOO  oooo OOOOO        OOOOO oo  OOOO",
"OOOOOOOOOOOOOOOOOOO oo  OOOOOOOOO   ooooo OOOOOOOOO oooooo   oo ...XX    ooooooooooooo OOOOOOOO ooooo O   ooooooo   OOO oo OOOOO",
"OOOOOOOOO  OOOOOOOO ooo OOOOOOOOOOOO      OOOOOOOOO ooooooo   o  ..X   oooooooooooooo OOOOOOOOOO oooo  oooooooooooo OOO o  OOOOO",
"OOOOOOOO   OOOOOOOO oooo OOOOOOOOOOOOOOOOOOOOOOOOOO  ooooooo  oo      oooooooooooooo  OOOOOOOOOOO ooooooooooooooooo OOO o OOOOOO",
"OOOOOOO oo OOOOOOOO oooo OOOOOOOOOOOOOOOOOOOOOOOOOOO oooooooo  oooo  oooooooooooooo  OOOOOOOOOOOO    oooooooooo     OOO  OOOOOOO",
"OOOOOO  oo OOOOOOOO oooo  OOOOOOOOOOOOOOOOOOOO OOOOOO ooooooooo ooo oooooooooooooo  OOOOOOOOOOOOOO  ooooooooo   OOOOOOOOOOOOOOOO",
"OOOOOO ooo OOOOOOOO ooooo OOO        OOOOOOOOO  OOOOOO  oooooooo o  ooooooooooooo  OOOOOOOOOOOOO  ooooooo    OOOOOOOOOOOOOOOOOOO",
"OOOOOO ooo OOOOOOOOO oooo O  ooooooo   OOOOOOO  OOOOOOO  ooooooo   ooooooooooooo  OOOOOOOOOOOOOO ooooooo  OOOOOOOOOOOOOOOOOOOOOO",
"OOOOOOO o OOOOOOOOOO oooo   ooooooooo  OOOOOO o OOOOOOOOO     o    oooooooooooo  OOOOOOOOOOOOOO ooooooo  OOOOOOOOOOOOOOOOOOOOOOO",
"OOOOOO       OOOOOOOO ooo ooooooooo   OOOOOOO o  OOOOOOOOOOO    OO  ooooooo     OOOOOOOOOOOOOO  oooooo  OOOOOOOOOOOOOOOOOOOOOOOO",
"OOOOO  o  oo  OOOOOOO oooooooooooo  OOOOOOOO ooo OOOOOOOOOOOOOOOOOO         OOOOOOOOOOOOOOOOOO oooooo OOOOOOOOOOOOOOOOOOOOOOOOOO",
"OOOO ooo  ooo  OOOOOOO  oooooo    OOOOOOOOOO ooo OOOOOOOOOOOOOOOOOOOOOOOOOOOOOOOOOOOOOOOOOOOOO oooooo OOOOOOOOO    OOOOOOOOOOOOO",
"OOO  ooo O  oo OOOOOOOO oo     OOOOOOOOOOOOO ooo OOOOOOOOOOOOOOOOOOOOOOOOOOOOOOOOOOOOOOOOOOOOO ooooo OOOOOOO   ooo OOOOOOOOOOOOO",
"OOO oooo OOO   OOOOOOOO ooo OOOOOOOOOOOOOOOO ooo OOOOOOOOOOOOOOOOO OOOOOOOOOOOOOOOOOOOOOOOOOOO  ooo  OOOOOO  ooooo OOOOOOOOOOOOO",
"OOO  oo OOOOOOOOOOOOOOO ooo OOOOOOOOOOOOOOOOO o  OOOOOOOOOOOOOOOO o OOOOOOOOOOOOOOOOOOOOOOOOOOO     OOOOO  oooooo  OOOOOOOOOOOOO",
"OOOO    OOOOOOOOOOOOOOO  o  OOOOOOOOOOOOOOOOO   OOOOOOOOOOOOOOOO oo  OOOOOOOOOOOOOOOOOOOOOOOOOO  OOOOOOOO ooooooo OOOOOOOOOOOOOO",
"OOOOOOOOOOOOOOOOOOOOOOOO   OOOOOOOOOOOOOOOOOOOO OOOOOOOOOOOOOOOO ooo OOOOOOOOOOOOOOOOOOOOOOOOOOOOOOOOOOO oooooooo OOOOOOOOOOOOOO",
"OOOOOOOOOOOOOOOOOOOOOOOOO  OOOOOOOOOOOOOOOOOOOOOOOOOOOOO  OOOOOO ooo OOOOOOOOOOOOOOOOOOOOOOOOOOOOOOOOOO ooooooooo OOOOOOOOOOOOOO",
"OOOOOOOOOOOOOOOOOOOOOOOOOOOOOOOOOOOOOOOOOOOOOOOOOOOOOOOO O   OOO ooo OOOOOOOOOOOOOOOOOOOOOOOOOOOOOOOOOO oooooooo OOOOOOOOOOOOOOO",
"OOOOOOO       OOOOOOOOOOOOOOOOOOOOOOOOOOOOOOOOOOOOOOOOOO  ooo  OO oo OOOOOOOOOOOOOOOOOOOOOOOOOOOOOOOOOO oooooooo OOOOOOOOOOOOOOO",
"OOOOO  ooooooo    OOOOOOOOO   XXXXXOOOOOOOOOOOOOOOOOOOOOO oooo    o  OOOOOOOOOOOOOOOOOOOOOOOOOOOOOOOOOO ooooooo OOOOOOOOOOOOOOOO",
"OOO  ooooooooooooo  OOOOO  oo XXX     OOOOOOOOOOOOOOOOOOO  ooooo oo    OOOOOOOOOOOOOOOOOOOOOOOOOOOOOOOO oooooo OOOOOOOOOOOOOOOOO",
"OO  oooooooooooooooo   O  ooo XXXX oo OOOOOOOO      OOOOOO   oooooooooo  OOOOOOOOOOOOOOOOOOOOOOOOOOOOOO oooo  OOOOOO     OOOOOOO",
"O   ooooooooooooooooooo  oooo .XXX  oo OOOO   oooooo   OOOOOO     oooooo  OOOOOOOOOOOOOOOOOOOOOOOOOOOOO oo     OOOO  ooo OOOOOOO",
"OOO  ooooooooooooooooo  ooooo ...XX oo OO  ooooooooooo  OOOOOOOOO ooooooo OOOOOOOO                 OOOO    ooo   OO oooo OOOOOOO",
"OOOO  oooooooooooooooo oooooo  ...X oo   ooooooooooooooo OOOOOOOOO oooooo  OOOOO  ooooooooooooooooo       oooooo   oooo  OOOOOOO",
"OOOOOO  oooooooooooooo  oooooo   .. oo oooooooooooooooooo OOOOOOOO  ooooo  OOOOO ooooooooooooooooooooooo oooooooo   oo  OOOOOOOO",
"OOOOOOO  oooooooooooooo oooooooo    oo ooooooooooooooooooo OOOOOOOO       OOOOOO ooooooooooooooooooooooo ooooooooo O   OOOOOOOOO",
"OOOOOOOO    oooooooo    oooooooooooooo ooooooooooooooooooo  OOOOOOOOOOOOOOOOOOOOO oooooooooooooooooooooo ooo    oo OOOOOOOOOOOOO",
"OOO  OOOOOOO        OOO  oooooooooooo  oooooooooooooooooooo OOOOOOOOOOOOOOOOOOOOOO oooooooooooooooooooo oo  XXX    OOOOOOOOOOOOO",
"OO   OOOOOOOOOOOOOOOOOOO  oooooooo   OO  oooooooooooooooooo  OOOOOOOOOOOOOOO  OOOOO  ooooooooooooooooo  oo .XXXXXXXOOOOOOOOOOOOO",
"OO oo OOOOOOOOOOOOOOOOOOO         OOOOOO     oooooooooooo    OOOOOOOOOOOOO    OOOOOO    oooooooooooooo  oo ...XXXX  OOOOOOO  OOO",
"OO oo OOOOOOOOOOOOOOOOOOOO             OOOOO             OOOOOOOOOOOOOOO  ooo OOOOOOOOOO  oooooooooo  O ooo  ...X   OOOOOO   OOO",
"O oooo OOOOOOOOOOOOOOOOOO  o    ooooooo   OOOOOOOOOOOOOOOOOOOOOOOOOOOOO oooo OOOOOOOOOOOOO     oooo  OO oooo      o OOOOO  o OOO",
"O oooo OOOOOOOOOOOOOOOOOO  oo  O oooooooo   OOOOOOOOOOOOOOOOOOOOOOOOO  ooooo OOOOOOOOOOOOOOOOOO    OOOO  oooooooooo OOOO ooo OOO",
"O oooo OOOOOOOOOOOOOOOOOO oooo O  oooooooooo OOOOOOOOOOOOOOOOOOOOOOO ooooooo OOOOOOOOOOOOOOOOOOOOOOOOOOO  oooooooo  OOO  ooo  OO",
"O oooo OOOOOOOOOOOOOOOOOO oooo OOO oooooooooo  OOOOOOOOOOOOOOOOOOOOO oooooo OOOOOOOOOOOOOOOOOOOOOOOOOOOOO  ooooooo OOOO ooooo OO",
"O ooo  OOOOOOOOOOOOOOOOOOO ooo OOO  oooooooooo  OOOOOOOOOOO    OOOO oooooo  OOOOOOOO   OOOOOOOOOOOOOOOOOOO  ooo   OOOOO ooooo OO",
"O ooo OOOOOOOOOOOOOOOOOOOO ooo OOOOO   oooooooo OOOOOOOOO   ooo   O oooo  OOOOOOOOOO o OOOOOOOOOOOOOOOOOOOOO    OOOOOOO ooooo OO",
"O oo  OOO     OOOOOOOOOOOO  o  OOOOOOOO   ooooo OOOOOOOOOO  ooooo   ooo  OOOOOOOOOO oo O      OOOOOOOOOOOOOOOOOOOOOOOOO ooooo OO",
"O o  O   oooo  OOOOOOOOOOOO   OOOOOOOOOOOO  ooo OOOOOOOOOOOO  oooo  oo  OOOOOOOOOOO o   ooooo OOOOOOOOOOOOOOOOOOOOOOOOOO oooo OO",
"O o   oooooooo  OOOOOOOOOOOO  OOOOOOOOOOOOOO    OOOOOOOOOOOOO    oo    OOOOOOOOOOOO o ooooooo OOOOOOOOOOOOOOOOOOOOO      oooo OO",
"O o ooooooooooo  OOOOOOOOOOOOOOOOOOOOOOOOOOOOOOOOOOOOOOOOOOOOOOOO    OOOOOOOOOOOOOO  oooooo   OOOOOOOOOOOOOOOOOO   oooo  ooo  OO",
"O ooooo          OOOOOOOOOOOOOOOOOOOOOOOOOOOOOOOOOOOOOOOOOOOOOOOOOOOOOOOOOOOOOOOOOO         OOOOOOOOOOOOOOOOOOO  oooooooo    OOO",
"OO      OOOOOOOOOOOOOOOOOOOOOOOOOOOOOOOOOOOOOOOOOOOOOOOOOOOOOOOOOOOOOOOOOOOOOOOOOOOOOOOOOOOOOOOOOOOOOOOOOOOOOOO oooooo    OOOOOO",
"OOOOOOOOOOOOOOOOOOOOOOOOOOOOOOOOOOOOOOOOOOOOOOOOOOOOOOOOOOOOOOOOOOOOOOOOOOOOOOOOOOOOOOOOOOOOOOOOOOOOOOOOOOOOOOO       OOOOOOOOOO",
"OOOOOOOOOOOOOOOOOOOOOOOOOOOOOOOOOOOOOOOOOOOOOOOOOOOOOOOOOOOOOOOOOOOOOOOOOOOOOOOOOOOOOOOOOOOOOOOOOOOOOOOOOOOOOOOOOOOOOOOOOOOOOOOO",
"OOOOOOOOOOOOOOOOOOOOOOOOOOOOOOOOOOOOOOOOOOOOOOOOOOOOOOOOOOOOOOOOOOOOOOOOOOOOOOOOOOOOOOOOOOOOOOOOOOOOOOOOOOOOOOOOOOOOOOOOOOOOOOOO",
"OOOOOOOOOOOOOOOOOOOOOOOOOOOOOOOOOOOOOOOOOOOOOOOOOOOOOOOOOOOOOOOOOOOOOOOOOOOOOOOOOOOOOOOOOOOOOOOOOOOOOOOOOOOOOOOOOOOOOOOOOOOOOOOO",
"OOOOOOOOOOOOOOOOOOOOOOOOOOOOOOOOOOOOOOOOOOOOOOOOOOOOOOOOOOOOOOOOOOOOOOOOOOOOOOOOOOOOOOOOOOOOOOOOOOOOOOOOOOOOOOOOOOOOOOOOOOOOOOOO"
};
